<?xml version="1.0" encoding="UTF-8"?><svg id="Ebene_1" xmlns="http://www.w3.org/2000/svg" xmlns:xlink="http://www.w3.org/1999/xlink" viewBox="0 0 300 300"><defs><style>.cls-1{fill:#eaeaea;}.cls-2{fill:url(#Unbenannter_Verlauf_6);}.cls-3{fill:#025d44;}.cls-4{fill:#027734;}.cls-5{fill:url(#Unbenannter_Verlauf_38);}.cls-6{fill:#71c376;}.cls-7{fill:#333;}</style><linearGradient id="Unbenannter_Verlauf_38" x1="125.53" y1="150" x2="269.85" y2="150" gradientUnits="userSpaceOnUse"><stop offset="0" stop-color="#c0ddba"/><stop offset=".24" stop-color="#97c1a0"/><stop offset=".77" stop-color="#317c61"/><stop offset="1" stop-color="#025d44"/></linearGradient><linearGradient id="Unbenannter_Verlauf_6" x1="30" y1="150" x2="179.72" y2="150" gradientUnits="userSpaceOnUse"><stop offset="0" stop-color="#71c376"/><stop offset="1" stop-color="#025d44"/></linearGradient></defs><path class="cls-5" d="M165.65,114.49h-.02l-3.99-.38-.33-.03-1.2-.11-.34-.04c-.21.76-.31,1.66-.31,2.66,0,.52.04,1,.09,1.45.03-.03.06-.05.09-.08.47-.42.92-.8,1.4-1.15.05-.04.11-.08.16-.12,1.54-1.13,3.09-1.84,4.47-2.04h.04c.39-.06.76-.09,1.11-.06l-1.16-.12ZM157.9,113.97c0-.07-.03-.13-.04-.21h-.03l-1.61-.15h-.08s-3.3-.31-3.3-.31l-.45-.04c-.04.1-.08.2-.12.3-.04.11-.08.22-.11.34-.05.16-.09.33-.13.51-.04.14-.06.3-.08.45-.02.09-.03.16-.04.25-.04.28-.06.57-.07.87,0,.09,0,.17,0,.26,0,.08,0,.16,0,.24l.16.13,4.12,3.18.29.22.8.62.09.07c.09-.14.16-.3.23-.47h0c.42-.99.65-2.26.65-3.79,0-.92-.09-1.75-.27-2.48ZM179.6,115.7l-.12-.16c0,.08-.02.17-.02.26l.37.04.03-.32-.26.19ZM179.6,115.7l-.12-.16c0,.08-.02.17-.02.26l.37.04.03-.32-.26.19ZM165.65,114.49h-.02l-3.99-.38-.33-.03-1.2-.11-.34-.04c-.21.76-.31,1.66-.31,2.66,0,.52.04,1,.09,1.45.03-.03.06-.05.09-.08.47-.42.92-.8,1.4-1.15.05-.04.11-.08.16-.12,1.54-1.13,3.09-1.84,4.47-2.04h.04c.39-.06.76-.09,1.11-.06l-1.16-.12ZM157.9,113.97c0-.07-.03-.13-.04-.21h-.03l-1.61-.15h-.08s-3.3-.31-3.3-.31l-.45-.04c-.04.1-.08.2-.12.3-.04.11-.08.22-.11.34-.05.16-.09.33-.13.51-.04.14-.06.3-.08.45-.02.09-.03.16-.04.25-.04.28-.06.57-.07.87,0,.09,0,.17,0,.26,0,.08,0,.16,0,.24l.16.13,4.12,3.18.29.22.8.62.09.07c.09-.14.16-.3.23-.47h0c.42-.99.65-2.26.65-3.79,0-.92-.09-1.75-.27-2.48ZM179.6,115.7l-.12-.16c0,.08-.02.17-.02.26l.37.04.03-.32-.26.19ZM179.6,115.7l-.12-.16c0,.08-.02.17-.02.26l.37.04.03-.32-.26.19ZM165.65,114.49h-.02l-3.99-.38-.33-.03-1.2-.11-.34-.04c-.21.76-.31,1.66-.31,2.66,0,.52.04,1,.09,1.45.03-.03.06-.05.09-.08.47-.42.92-.8,1.4-1.15.05-.04.11-.08.16-.12,1.54-1.13,3.09-1.84,4.47-2.04h.04c.39-.06.76-.09,1.11-.06l-1.16-.12ZM157.9,113.97c0-.07-.03-.13-.04-.21h-.03l-1.61-.15h-.08s-3.3-.31-3.3-.31l-.45-.04c-.04.1-.08.2-.12.3-.04.11-.08.22-.11.34-.05.16-.09.33-.13.51-.04.14-.06.3-.08.45-.02.09-.03.16-.04.25-.04.28-.06.57-.07.87,0,.09,0,.17,0,.26,0,.08,0,.16,0,.24l.16.13,4.12,3.18.29.22.8.62.09.07c.09-.14.16-.3.23-.47h0c.42-.99.65-2.26.65-3.79,0-.92-.09-1.75-.27-2.48ZM179.6,115.7l-.12-.16c0,.08-.02.17-.02.26l.37.04.03-.32-.26.19ZM179.6,115.7l-.12-.16c0,.08-.02.17-.02.26l.37.04.03-.32-.26.19ZM165.65,114.49h-.02l-3.99-.38-.33-.03-1.2-.11-.34-.04c-.21.76-.31,1.66-.31,2.66,0,.52.04,1,.09,1.45.03-.03.06-.05.09-.08.47-.42.92-.8,1.4-1.15.05-.04.11-.08.16-.12,1.54-1.13,3.09-1.84,4.47-2.04h.04c.39-.06.76-.09,1.11-.06l-1.16-.12ZM157.9,113.97c0-.07-.03-.13-.04-.21h-.03l-1.61-.15h-.08s-3.3-.31-3.3-.31l-.45-.04c-.04.1-.08.2-.12.3-.04.11-.08.22-.11.34-.05.16-.09.33-.13.51-.04.14-.06.3-.08.45-.02.09-.03.16-.04.25-.04.28-.06.57-.07.87,0,.09,0,.17,0,.26,0,.08,0,.16,0,.24l.16.13,4.12,3.18.29.22.8.62.09.07c.09-.14.16-.3.23-.47h0c.42-.99.65-2.26.65-3.79,0-.92-.09-1.75-.27-2.48ZM179.6,115.7l-.12-.16c0,.08-.02.17-.02.26l.37.04.03-.32-.26.19ZM179.6,115.7l-.12-.16c0,.08-.02.17-.02.26l.37.04.03-.32-.26.19ZM165.65,114.49h-.02l-3.99-.38-.33-.03-1.2-.11-.34-.04c-.21.76-.31,1.66-.31,2.66,0,.52.04,1,.09,1.45.03-.03.06-.05.09-.08.47-.42.92-.8,1.4-1.15.05-.04.11-.08.16-.12,1.54-1.13,3.09-1.84,4.47-2.04h.04c.39-.06.76-.09,1.11-.06l-1.16-.12ZM157.9,113.97c0-.07-.03-.13-.04-.21h-.03l-1.61-.15h-.08s-3.3-.31-3.3-.31l-.45-.04c-.04.1-.08.2-.12.3-.04.11-.08.22-.11.34-.05.16-.09.33-.13.51-.04.14-.06.3-.08.45-.02.09-.03.16-.04.25-.04.28-.06.57-.07.87,0,.09,0,.17,0,.26,0,.08,0,.16,0,.24l.16.13,4.12,3.18.29.22.8.62.09.07c.09-.14.16-.3.23-.47h0c.42-.99.65-2.26.65-3.79,0-.92-.09-1.75-.27-2.48ZM179.6,115.7l-.12-.16c0,.08-.02.17-.02.26l.37.04.03-.32-.26.19ZM179.6,115.7l-.12-.16c0,.08-.02.17-.02.26l.37.04.03-.32-.26.19ZM165.65,114.49h-.02l-3.99-.38-.33-.03-1.2-.11c-.07.18-.13.37-.19.56-.21.76-.31,1.66-.31,2.66,0,.27.02.52.03.77.47-.42.92-.8,1.4-1.15.05-.04.11-.08.16-.12,1.54-1.13,3.09-1.84,4.47-2.04h.04c.39-.06.76-.09,1.11-.06l-1.16-.12ZM157.9,113.97c-.03-.07-.04-.14-.07-.21l-1.61-.15h-.08s-3.3-.31-3.3-.31c-.47.71-.77,1.82-.84,3.31l4.12,3.18.29.22.8.62.09.07c.09-.14.16-.3.23-.47h0c.18-.22.36-.44.54-.65.17-.74.26-1.6.26-2.55,0-1.01-.11-1.91-.31-2.68-.03-.13-.06-.27-.11-.39ZM175.76,30.08l1.14.98,6.42,5.51c6.3,5.41,9.97,13.28,10.06,21.59.03,3.24-.48,6.43-1.51,9.43-.13.4-.27.8-.42,1.19-.74,1.91-1.67,3.74-2.8,5.45-.4.62-.83,1.23-1.29,1.82-1.08,1.39-2.29,2.69-3.62,3.88l-10.29,9.16-1.4,1.25-1.01.91-2.23,1.99-2.2,1.95c.06,0,.13-.03.19-.04.6-.11,1.22-.17,1.86-.17h.18c.48,0,.94.02,1.4.05.05,0,.12,0,.17.02,1.65.11,3.18.4,4.56.82.05.02.12.04.17.05.47.16.92.32,1.35.5h0c.07.04.14.06.21.09.5.21.97.47,1.39.73h0s.04.04.05.04c.88.54,1.59,1.17,2.08,1.85.13.19.26.39.36.59t0,0c.2.4.33.82.38,1.24.02.13.03.26.03.39,0,2.49-2.74,4.65-6.75,5.69-.22.06-.45.12-.67.16-1.49.33-3.12.52-4.84.52-3.15,0-6.02-1.38-8.19-2.86-.21-.13-.4-.27-.59-.41-.77-.56-1.43-1.1-1.96-1.58l-7.37,6.56-1.78,1.6-.25.22-.73.65-.24.22-.63.56-.03.04-.2.17-.26.23-2.11,1.87-1.74,1.55-1.49,1.33-1.75,1.56-3.52,3.13-2.15,1.92-7.34,6.54c-.43.39-.65.81-.76,1.21-.09.3-.11.6-.1.84.04.56.24,1.34,1.07,1.94l25.31,19.26s.11.04.14,0l10.21-9.83,1.04-1,2.38-2.29,1.81-1.74,1.14-1.09,1.39-1.34,2.38-2.29,1.52-1.47,2.19-2.11,5.4-5.19,5.67-5.45s.11-.04.15,0h0s4.28,4.46,4.28,4.46c3.6,3.75,5.51,8.5,5.74,13.32,0,.21,0,.4,0,.61.1,5.33-1.87,10.68-5.86,14.75h0c-.13.15-.28.3-.43.44l-3.84,3.69-1.46,1.41-1.62,1.57-3.42,3.28-.98.94-5.77,5.56-.25.24c-.05.04-.05.13,0,.17l17.25,13.14,1.51,1.09c7.53,5.43,12.29,14.03,12.5,23.24v.3c0,.49,0,1-.02,1.5-.13,3.25-.81,6.39-1.96,9.33-.24.6-.5,1.18-.78,1.77h0c-1.02,2.19-2.34,4.23-3.9,6.1-.33.39-.68.78-1.03,1.16-1.02,1.09-2.13,2.11-3.34,3.05l-10.99,8.62-1.52,1.19-4.89,3.83-1.6,1.25-3.91,3.07-1.12.88-.79.62-.57.45-2.55,2-.5.39-9.75,7.64-1.2.94-2.3,1.8h0l-1.9,1.49-4.2,3.29-.87.68c-.08.06-.04.2.07.2h21.36c-.12-.2-.22-.4-.31-.6-1.06-2.07-1.18-4.02-.14-4.97,1.23-1.12,3.67-.54,5.97,1.27v2.7l1.52-.66v.7l-1.09.48,1.09-.1v.56c.48,0,.94-.03,1.42-.04h0c.08.21.15.39.22.59.35,0,.71-.02,1.06-.04.18,0,.35,0,.53-.03.23,0,.48-.02.71-.04.35-.03.69-.04,1.04-.07.27-.02.53-.04.79-.06.24-.02.48-.04.72-.05.24-.03.48-.04.72-.07.22-.02.43-.04.64-.06.03,0,.05,0,.08,0,.48-.04.97-.1,1.44-.15.35-.04.7-.08,1.05-.13-.05-.19-.09-.39-.12-.59.03,0,.06,0,.09,0,.33-.04.66-.08,1-.13l-1,.08h-.09c-.04-.2-.06-.41-.06-.64,0-.07,0-.14,0-.22,0-3.35,2.65-6.09,5.96-6.23h.02s.02,0,.04,0c.07,0,.15,0,.23,0,1.29,0,2.49.39,3.49,1.06,0,0,0,0,0,0,1.28.87,2.22,2.2,2.58,3.75.02.09.04.18.05.27t0,.02c0,.09.03.19.04.29.02,0,.03,0,.04,0,11.48-2.99,22.14-7.99,31.57-14.63.37-.25.74-.51,1.09-.77,2.66-1.92,5.23-3.98,7.68-6.16.51-.45,1.02-.91,1.52-1.38,6.5-6.01,12.2-12.9,16.88-20.47.53-.84,1.03-1.7,1.52-2.56,3.07-5.29,5.64-10.9,7.68-16.75.55-1.57,1.06-3.16,1.52-4.76,2.44-8.36,3.79-17.18,3.9-26.3,0-.2,0-.4,0-.61,0-.4,0-.81,0-1.21V30.08h-94.09ZM176.31,115.5c.06-.21.13-.42.22-.63.11-.31.24-.64.39-.95.18-.38.39-.74.65-1.06.13-.18.27-.36.42-.52,1.95-2.19,4.99-3.03,4.99-3.03,0,0,.29.64.55,1.62.02.08.04.16.05.25,0,.03.02.06.03.1.18.75.32,1.68.3,2.64,0,.99-.18,2.03-.64,3-.76,1.62-1.79,2.94-2.84,3.78-.4.32-.81.57-1.2.74-.73.31-1.43.37-2.01.09-.55-.26-.94-.77-1.17-1.45h0c-.39-1.17-.31-2.82.25-4.57ZM163.51,132.07c-1.23,0-2.28.58-3,1.7-1,.42-1.97.74-2.82.96-.56.15-1.06.27-1.49.35-.36-1.11-.99-1.77-1.92-1.79-.03-.19-.05-.39-.07-.6-.03-.2-.04-.4-.05-.61-.2-2.52-.07-6.07,1.52-9.14.19-.36.39-.7.61-1.04.24-.18.46-.39.65-.65.13-.16.25-.34.36-.54.09-.14.16-.3.23-.47h0c.18-.22.36-.44.54-.65.49-.56.99-1.07,1.49-1.53.03-.03.06-.05.09-.08.47-.42.92-.8,1.4-1.15.05-.04.11-.08.16-.12,1.54-1.13,3.09-1.84,4.47-2.04h.04c.39-.06.76-.09,1.11-.06.11,0,.21.02.3.03.04,0,.08.02.13.03.02,0,.03,0,.04,0,.52.08,1,.28,1.43.57.83.58,1.36,1.52,1.59,2.69.57,2.84-.64,7.08-3.39,11.02-.89,1.27-2.02,2.3-3.23,3.12-.05,0-.11,0-.17,0ZM175.65,261.34s-1.75-3.06-.81-5.73c.13-.35.26-.68.42-.99.09-.2.19-.39.3-.57,1.01-1.76,2.42-2.77,3.52-2.39,1.39.49,1.75,3.06.8,5.73-.94,2.66-4.22,3.95-4.22,3.95ZM180.29,267.16c-.16.14-.34.25-.55.33-.22.09-.47.14-.72.14-.68,0-1.27-.35-1.61-.88-.12-.18-.21-.38-.25-.58-.04-.15-.06-.3-.06-.47,0-1.07.86-1.93,1.93-1.93.11,0,.22,0,.31.03l.04.16.19-.11h0s.08.03.12.04c.19.07.37.17.52.3.45.35.74.9.74,1.51s-.26,1.1-.66,1.45ZM179.86,115.51l-.26.19-.12-.16c0,.08-.02.17-.02.26l.37.04.03-.32ZM157.9,113.97c0-.07-.03-.13-.04-.21h-.03l-1.61-.15h-.08s-3.3-.31-3.3-.31l-.45-.04c-.04.1-.08.2-.12.3-.04.11-.08.22-.11.34-.05.16-.09.33-.13.51-.04.14-.06.3-.08.45-.02.09-.03.16-.04.25-.04.28-.06.57-.07.87,0,.09,0,.17,0,.26,0,.08,0,.16,0,.24l.16.13,4.12,3.18.29.22.8.62.09.07c.09-.14.16-.3.23-.47h0c.42-.99.65-2.26.65-3.79,0-.92-.09-1.75-.27-2.48ZM165.65,114.49h-.02l-3.99-.38-.33-.03-1.2-.11-.34-.04c-.21.76-.31,1.66-.31,2.66,0,.52.04,1,.09,1.45.03-.03.06-.05.09-.08.47-.42.92-.8,1.4-1.15.05-.04.11-.08.16-.12,1.54-1.13,3.09-1.84,4.47-2.04h.04c.39-.06.76-.09,1.11-.06l-1.16-.12ZM179.6,115.7l-.12-.16c0,.08-.02.17-.02.26l.37.04.03-.32-.26.19ZM179.6,115.7l-.12-.16c0,.08-.02.17-.02.26l.37.04.03-.32-.26.19ZM157.9,113.97c0-.07-.03-.13-.04-.21h-.03l-1.61-.15h-.08s-3.3-.31-3.3-.31l-.45-.04c-.04.1-.08.2-.12.3-.04.11-.08.22-.11.34-.05.16-.09.33-.13.51-.04.14-.06.3-.08.45-.02.09-.03.16-.04.25-.04.28-.06.57-.07.87,0,.09,0,.17,0,.26,0,.08,0,.16,0,.24l.16.13,4.12,3.18.29.22.8.62.09.07c.09-.14.16-.3.23-.47h0c.42-.99.65-2.26.65-3.79,0-.92-.09-1.75-.27-2.48ZM165.65,114.49h-.02l-3.99-.38-.33-.03-1.2-.11-.34-.04c-.21.76-.31,1.66-.31,2.66,0,.52.04,1,.09,1.45.03-.03.06-.05.09-.08.47-.42.92-.8,1.4-1.15.05-.04.11-.08.16-.12,1.54-1.13,3.09-1.84,4.47-2.04h.04c.39-.06.76-.09,1.11-.06l-1.16-.12ZM179.6,115.7l-.12-.16c0,.08-.02.17-.02.26l.37.04.03-.32-.26.19ZM179.6,115.7l-.12-.16c0,.08-.02.17-.02.26l.37.04.03-.32-.26.19ZM157.9,113.97c0-.07-.03-.13-.04-.21h-.03l-1.61-.15h-.08s-3.3-.31-3.3-.31l-.45-.04c-.04.1-.08.2-.12.3-.04.11-.08.22-.11.34-.05.16-.09.33-.13.51-.04.14-.06.3-.08.45-.02.09-.03.16-.04.25-.04.28-.06.57-.07.87,0,.09,0,.17,0,.26,0,.08,0,.16,0,.24l.16.13,4.12,3.18.29.22.8.62.09.07c.09-.14.16-.3.23-.47h0c.42-.99.65-2.26.65-3.79,0-.92-.09-1.75-.27-2.48ZM165.65,114.49h-.02l-3.99-.38-.33-.03-1.2-.11-.34-.04c-.21.76-.31,1.66-.31,2.66,0,.52.04,1,.09,1.45.03-.03.06-.05.09-.08.47-.42.92-.8,1.4-1.15.05-.04.11-.08.16-.12,1.54-1.13,3.09-1.84,4.47-2.04h.04c.39-.06.76-.09,1.11-.06l-1.16-.12ZM179.6,115.7l-.12-.16c0,.08-.02.17-.02.26l.37.04.03-.32-.26.19ZM179.6,115.7l-.12-.16c0,.08-.02.17-.02.26l.37.04.03-.32-.26.19ZM157.9,113.97c0-.07-.03-.13-.04-.21h-.03l-1.61-.15h-.08s-3.3-.31-3.3-.31l-.45-.04c-.04.1-.08.2-.12.3-.04.11-.08.22-.11.34-.05.16-.09.33-.13.51-.04.14-.06.3-.08.45-.02.09-.03.16-.04.25-.04.28-.06.57-.07.87,0,.09,0,.17,0,.26,0,.08,0,.16,0,.24l.16.13,4.12,3.18.29.22.8.62.09.07c.09-.14.16-.3.23-.47h0c.42-.99.65-2.26.65-3.79,0-.92-.09-1.75-.27-2.48ZM165.65,114.49h-.02l-3.99-.38-.33-.03-1.2-.11-.34-.04c-.21.76-.31,1.66-.31,2.66,0,.52.04,1,.09,1.45.03-.03.06-.05.09-.08.47-.42.92-.8,1.4-1.15.05-.04.11-.08.16-.12,1.54-1.13,3.09-1.84,4.47-2.04h.04c.39-.06.76-.09,1.11-.06l-1.16-.12ZM179.6,115.7l-.12-.16c0,.08-.02.17-.02.26l.37.04.03-.32-.26.19ZM179.6,115.7l-.12-.16c0,.08-.02.17-.02.26l.37.04.03-.32-.26.19ZM157.9,113.97c0-.07-.03-.13-.04-.21h-.03l-1.61-.15h-.08s-3.3-.31-3.3-.31l-.45-.04c-.04.1-.08.2-.12.3-.04.11-.08.22-.11.34-.05.16-.09.33-.13.51-.04.14-.06.3-.08.45-.02.09-.03.16-.04.25-.04.28-.06.57-.07.87,0,.09,0,.17,0,.26,0,.08,0,.16,0,.24l.16.13,4.12,3.18.29.22.8.62.09.07c.09-.14.16-.3.23-.47h0c.42-.99.65-2.26.65-3.79,0-.92-.09-1.75-.27-2.48ZM165.65,114.49h-.02l-3.99-.38-.33-.03-1.2-.11-.34-.04c-.21.76-.31,1.66-.31,2.66,0,.52.04,1,.09,1.45.03-.03.06-.05.09-.08.47-.42.92-.8,1.4-1.15.05-.04.11-.08.16-.12,1.54-1.13,3.09-1.84,4.47-2.04h.04c.39-.06.76-.09,1.11-.06l-1.16-.12ZM157.9,113.97c0-.07-.03-.13-.04-.21h-.03l-1.61-.15h-.08s-3.3-.31-3.3-.31l-.45-.04c-.04.1-.08.2-.12.3-.04.11-.08.22-.11.34-.05.16-.09.33-.13.51-.04.14-.06.3-.08.45-.02.09-.03.16-.04.25-.04.28-.06.57-.07.87,0,.09,0,.17,0,.26,0,.08,0,.16,0,.24l.16.13,4.12,3.18.29.22.8.62.09.07c.09-.14.16-.3.23-.47h0c.42-.99.65-2.26.65-3.79,0-.92-.09-1.75-.27-2.48ZM165.65,114.49h-.02l-3.99-.38-.33-.03-1.2-.11-.34-.04c-.21.76-.31,1.66-.31,2.66,0,.52.04,1,.09,1.45.03-.03.06-.05.09-.08.47-.42.92-.8,1.4-1.15.05-.04.11-.08.16-.12,1.54-1.13,3.09-1.84,4.47-2.04h.04c.39-.06.76-.09,1.11-.06l-1.16-.12Z"/><path class="cls-3" d="M237.18,155.41c-1.38,0-2.39,1.69-2.39,4.86s.93,4.75,2.37,4.75c1.61,0,2.39-1.88,2.39-4.86s-.73-4.75-2.37-4.75Z"/><path class="cls-3" d="M200.37,176.93c-1.38,0-2.39,1.69-2.39,4.86s.93,4.75,2.37,4.75c1.61,0,2.39-1.88,2.39-4.86s-.73-4.75-2.37-4.75Z"/><path class="cls-3" d="M237.18,133.89c-1.38,0-2.39,1.69-2.39,4.86s.93,4.75,2.37,4.75c1.61,0,2.39-1.88,2.39-4.86s-.73-4.75-2.37-4.75Z"/><path class="cls-3" d="M237.18,112.36c-1.38,0-2.39,1.69-2.39,4.86s.93,4.75,2.37,4.75c1.61,0,2.39-1.88,2.39-4.86s-.73-4.75-2.37-4.75Z"/><path class="cls-3" d="M200.37,90.84c-1.38,0-2.39,1.69-2.39,4.86s.93,4.75,2.37,4.75c1.61,0,2.39-1.88,2.39-4.86s-.73-4.75-2.37-4.75Z"/><path class="cls-3" d="M237.18,198.45c-1.38,0-2.39,1.69-2.39,4.86s.93,4.75,2.37,4.75c1.61,0,2.39-1.88,2.39-4.86s-.73-4.75-2.37-4.75Z"/><path class="cls-3" d="M237.18,90.84c-1.38,0-2.39,1.69-2.39,4.86s.93,4.75,2.37,4.75c1.61,0,2.39-1.88,2.39-4.86s-.73-4.75-2.37-4.75Z"/><path class="cls-3" d="M200.37,155.41c-1.38,0-2.39,1.69-2.39,4.86s.93,4.75,2.37,4.75c1.61,0,2.39-1.88,2.39-4.86s-.73-4.75-2.37-4.75Z"/><path class="cls-3" d="M246.38,176.93c-1.38,0-2.39,1.69-2.39,4.86s.93,4.75,2.37,4.75c1.61,0,2.39-1.88,2.39-4.86s-.73-4.75-2.37-4.75Z"/><path class="cls-3" d="M154.37,112.36c-1.38,0-2.39,1.69-2.39,4.86s.93,4.75,2.37,4.75c1.61,0,2.39-1.88,2.39-4.86s-.73-4.75-2.37-4.75Z"/><path class="cls-3" d="M165.81,115.27c-1.43.22-3.03.97-4.63,2.16v-.21c0-1,.1-1.84.28-2.54.05-.22.12-.44.2-.63.42-1.12,1.1-1.69,1.91-1.69,1.04,0,1.71.76,2.06,2.06.06.21.11.43.15.66,0,.05.02.12.03.18Z"/><path class="cls-3" d="M156.74,138.64c0,2.98-.77,4.86-2.39,4.86-1.43,0-2.37-1.72-2.37-4.75s1-4.86,2.39-4.86h.06c.93.03,1.56.68,1.92,1.79.26.78.39,1.78.39,2.96Z"/><path class="cls-3" d="M237.18,219.97c-1.38,0-2.39,1.69-2.39,4.86s.93,4.75,2.37,4.75c1.61,0,2.39-1.88,2.39-4.86s-.73-4.75-2.37-4.75Z"/><path class="cls-3" d="M246.38,198.45c-1.38,0-2.39,1.69-2.39,4.86s.93,4.75,2.37,4.75c1.61,0,2.39-1.88,2.39-4.86s-.73-4.75-2.37-4.75Z"/><path class="cls-3" d="M181.97,90.84c-1.38,0-2.39,1.69-2.39,4.86s.93,4.75,2.37,4.75c1.61,0,2.39-1.88,2.39-4.86s-.73-4.75-2.37-4.75Z"/><path class="cls-3" d="M179.75,116.29l.26-.19-.03.32-.37-.04c0-.09,0-.18.02-.26l.12.16Z"/><path class="cls-3" d="M184.34,117.12c0,2.98-.77,4.86-2.39,4.86-.54,0-1-.24-1.37-.69,1.05-.83,2.08-2.15,2.84-3.78.46-.97.63-2.01.64-3,.19.72.28,1.61.28,2.6Z"/><path class="cls-3" d="M246.38,112.36c-1.38,0-2.39,1.69-2.39,4.86s.93,4.75,2.37,4.75c1.61,0,2.39-1.88,2.39-4.86s-.73-4.75-2.37-4.75Z"/><path class="cls-3" d="M237.18,47.8c-1.38,0-2.39,1.69-2.39,4.86s.93,4.75,2.37,4.75c1.61,0,2.39-1.88,2.39-4.86s-.73-4.75-2.37-4.75Z"/><path class="cls-3" d="M218.78,133.89c-1.38,0-2.39,1.69-2.39,4.86s.93,4.75,2.37,4.75c1.61,0,2.39-1.88,2.39-4.86s-.73-4.75-2.37-4.75Z"/><path class="cls-3" d="M209.57,155.41c-1.38,0-2.39,1.69-2.39,4.86s.93,4.75,2.37,4.75c1.61,0,2.39-1.88,2.39-4.86s-.73-4.75-2.37-4.75Z"/><path class="cls-3" d="M209.57,90.84c-1.38,0-2.39,1.69-2.39,4.86s.93,4.75,2.37,4.75c1.61,0,2.39-1.88,2.39-4.86s-.73-4.75-2.37-4.75Z"/><path class="cls-3" d="M218.78,112.36c-1.38,0-2.39,1.69-2.39,4.86s.93,4.75,2.37,4.75c1.61,0,2.39-1.88,2.39-4.86s-.73-4.75-2.37-4.75Z"/><path class="cls-3" d="M218.78,198.45c-1.38,0-2.39,1.69-2.39,4.86s.93,4.75,2.37,4.75c1.61,0,2.39-1.88,2.39-4.86s-.73-4.75-2.37-4.75Z"/><path class="cls-3" d="M218.78,241.5c-1.38,0-2.39,1.69-2.39,4.86s.93,4.75,2.37,4.75c1.61,0,2.39-1.88,2.39-4.86s-.73-4.75-2.37-4.75Z"/><path class="cls-3" d="M218.78,155.41c-1.38,0-2.39,1.69-2.39,4.86s.93,4.75,2.37,4.75c1.61,0,2.39-1.88,2.39-4.86s-.73-4.75-2.37-4.75Z"/><path class="cls-3" d="M209.57,198.45c-1.38,0-2.39,1.69-2.39,4.86s.93,4.75,2.37,4.75c1.61,0,2.39-1.88,2.39-4.86s-.73-4.75-2.37-4.75Z"/><path class="cls-3" d="M227.98,90.84c-1.38,0-2.39,1.69-2.39,4.86s.93,4.75,2.37,4.75c1.61,0,2.39-1.88,2.39-4.86s-.73-4.75-2.37-4.75Z"/><path class="cls-3" d="M200.37,47.8c-1.38,0-2.39,1.69-2.39,4.86s.93,4.75,2.37,4.75c1.61,0,2.39-1.88,2.39-4.86s-.73-4.75-2.37-4.75Z"/><path class="cls-3" d="M200.37,241.5c-1.38,0-2.39,1.69-2.39,4.86s.93,4.75,2.37,4.75c1.61,0,2.39-1.88,2.39-4.86s-.73-4.75-2.37-4.75Z"/><path class="cls-3" d="M227.98,133.89c-1.38,0-2.39,1.69-2.39,4.86s.93,4.75,2.37,4.75c1.61,0,2.39-1.88,2.39-4.86s-.73-4.75-2.37-4.75Z"/><path class="cls-3" d="M227.98,47.8c-1.38,0-2.39,1.69-2.39,4.86s.93,4.75,2.37,4.75c1.61,0,2.39-1.88,2.39-4.86s-.73-4.75-2.37-4.75Z"/><path class="cls-3" d="M227.98,198.45c-1.38,0-2.39,1.69-2.39,4.86s.93,4.75,2.37,4.75c1.61,0,2.39-1.88,2.39-4.86s-.73-4.75-2.37-4.75Z"/><path class="cls-3" d="M227.98,176.93c-1.38,0-2.39,1.69-2.39,4.86s.93,4.75,2.37,4.75c1.61,0,2.39-1.88,2.39-4.86s-.73-4.75-2.37-4.75Z"/><path class="cls-3" d="M218.78,219.97c-1.38,0-2.39,1.69-2.39,4.86s.93,4.75,2.37,4.75c1.61,0,2.39-1.88,2.39-4.86s-.73-4.75-2.37-4.75Z"/><path class="cls-3" d="M218.78,69.32c-1.38,0-2.39,1.69-2.39,4.86s.93,4.75,2.37,4.75c1.61,0,2.39-1.88,2.39-4.86s-.73-4.75-2.37-4.75Z"/><path class="cls-3" d="M227.98,219.97c-1.38,0-2.39,1.69-2.39,4.86s.93,4.75,2.37,4.75c1.61,0,2.39-1.88,2.39-4.86s-.73-4.75-2.37-4.75Z"/><path class="cls-3" d="M178.06,31.92c-.02-.26-.05-.52-.05-.8,0-.37.03-.7.06-1.04h-2.16l1.14.98,1.01.86Z"/><path class="cls-3" d="M264.78,133.89c-1.38,0-2.39,1.69-2.39,4.86s.93,4.75,2.37,4.75c1.61,0,2.39-1.88,2.39-4.86s-.73-4.75-2.37-4.75Z"/><path class="cls-3" d="M255.58,112.36c-1.38,0-2.39,1.69-2.39,4.86s.93,4.75,2.37,4.75c1.61,0,2.39-1.88,2.39-4.86s-.73-4.75-2.37-4.75Z"/><path class="cls-3" d="M200.36,229.59c1.61,0,2.39-1.88,2.39-4.86,0-1.3-.16-2.39-.48-3.2-1.05,2.15-2.36,4.17-3.94,6.01.39,1.32,1.1,2.05,2.03,2.05Z"/><path class="cls-3" d="M175.14,95.6c0,.3,0,.6-.03.89-1.42-.43-3.01-.73-4.73-.83,0-1.71.31-3,.81-3.79.28-.46.63-.76,1.01-.91.18-.07.37-.11.56-.11,1.63,0,2.37,1.88,2.37,4.75Z"/><path class="cls-3" d="M179.59,31.14c0,.89.09,1.65.24,2.3l2.74,2.35c1.2-.43,1.78-2.18,1.78-4.75,0-.33-.01-.65-.03-.95h-4.68c-.03.33-.04.68-.04,1.06Z"/><path class="cls-3" d="M126.77,133.89c-.29,0-.56.09-.81.24.16.32.41.63.79.91l2.26,1.72c-.28-1.78-1-2.87-2.24-2.87Z"/><path class="cls-3" d="M255.58,90.84c-1.38,0-2.39,1.69-2.39,4.86s.93,4.75,2.37,4.75c1.61,0,2.39-1.88,2.39-4.86s-.73-4.75-2.37-4.75Z"/><path class="cls-3" d="M142.79,117.22c0,3.03.93,4.75,2.37,4.75,1.61,0,2.39-1.88,2.39-4.86,0-1.78-.28-3.18-.89-3.99l-3.84,3.42c-.01.22-.03.44-.03.68Z"/><path class="cls-3" d="M181.96,165.02c1.52,0,2.28-1.67,2.37-4.34l-3.76,3.62c.38.47.85.72,1.39.72Z"/><path class="cls-3" d="M172.75,251.11c1.58,0,2.34-1.8,2.38-4.66l-4.16,3.26c.41.9,1.03,1.39,1.78,1.39Z"/><path class="cls-3" d="M207.19,31.14c0,3.03.93,4.75,2.37,4.75,1.61,0,2.39-1.88,2.39-4.86,0-.33-.01-.65-.03-.95h-4.68c-.03.33-.04.68-.04,1.06Z"/><path class="cls-3" d="M192.64,185.15c.08.06.16.13.25.19.43-.85.65-2.09.65-3.65,0-2.87-.73-4.75-2.37-4.75-1.38,0-2.39,1.69-2.39,4.86,0,.18.01.33.02.5l2.33,1.78,1.5,1.08Z"/><path class="cls-3" d="M265.93,30.08v6.83h-1.52v-6.83h-4.91c0,.19.02.39.02.6,0,.09,0,.18,0,.28,0,3.96-1.47,6.15-4.05,6.15-2.28,0-3.82-2.13-3.86-5.99,0-.15,0-.3.02-.44,0-.21.02-.4.04-.6h-4.14v6.83h-1.52v-6.83h-7.68v6.83h-1.52v-6.83h-7.68v6.83h-1.52v-6.83h-7.68v6.83h-1.52v-6.83h-4.91c0,.19.02.39.02.6,0,.09,0,.18,0,.28,0,3.96-1.47,6.15-4.05,6.15-2.28,0-3.82-2.13-3.86-5.99,0-.15,0-.3.02-.44,0-.21.02-.4.04-.6h-4.14v6.83h-1.52v-6.83h-7.68v6.83h-1.52v-6.83h-4.91c0,.19.02.39.02.6,0,.09,0,.18,0,.28,0,2.96-.82,4.92-2.3,5.73,3.23,2.81,5.75,6.26,7.44,10.09h1.26v3.43c.76,2.56,1.18,5.22,1.21,7.95v.6c-.04,3.23-.63,6.4-1.7,9.39.07,0,.13.03.2.04,1.98.4,3.09,2.5,3.09,5.81,0,3.96-1.47,6.15-4.05,6.15-1.72,0-3-1.24-3.55-3.5-.04-.15-.07-.31-.11-.48-1.05,1.35-2.22,2.61-3.52,3.77l-10.88,9.69c.21,0,.4.03.59.07,1.99.39,3.11,2.49,3.11,5.82,0,.35,0,.68-.04,1-.02.17-.04.34-.05.51h0c.58.24,1.12.52,1.6.82-.04-.18-.07-.36-.1-.56-.07-.49-.11-1.04-.12-1.61,0-3.91,1.69-6.06,4.05-6.06s3.86,2.19,3.86,5.9c0,3.96-1.47,6.15-4.05,6.15-.27,0-.52-.03-.76-.09.02.13.03.26.03.39,0,2.44-2.64,4.56-6.52,5.63-.07.02-.15.04-.23.06-.13.04-.29.08-.43.11-.08.02-.16.04-.24.05-1.49.33-3.12.52-4.84.52-3.15,0-6.02-1.38-8.19-2.86-.2-.12-.38-.25-.56-.39,0,0-.03-.02-.04-.03-.19-.13-.37-.27-.54-.39-.55-.42-1.02-.82-1.43-1.18-.12-.12-.22-.22-.33-.31l-6.79,6.06-1.92,1.71h0s-.11.11-.11.11l-.12.09-.11.1-1,.9-.03.03c.05.05.1.11.14.17.05.05.09.12.13.18.06.08.12.16.16.25.02.02.03.04.04.07.13.19.22.39.31.62.05.13.11.26.15.39.02.06.04.13.06.2.04.13.07.25.1.39.03.07.04.15.06.22.03.13.05.25.08.39.03.17.05.35.07.54.05.45.08.93.08,1.44,0,3.96-1.47,6.15-4.05,6.15-2,0-3.42-1.68-3.77-4.7-.02-.19-.04-.38-.04-.57l-1.52,1.36c-.05.27-.11.52-.18.76-.57,1.97-1.78,3.07-3.52,3.13-.05,0-.12,0-.17,0-.15,0-.3-.04-.45-.05l-1.53,1.36-7.34,6.54c-.67.6-.84,1.3-.86,1.84.04,0,.06-.02.1-.03.34-.12.7-.19,1.08-.19,2.34,0,3.72,1.98,3.85,5.38l1.32,1c0-.12-.02-.22-.02-.32,0-3.91,1.69-6.06,4.05-6.06s3.86,2.19,3.86,5.9c0,2.48-.57,4.26-1.63,5.25l13.77,10.47h0s.11.04.14,0l10.17-9.78s-.07-.03-.11-.05c-1.6-.65-2.63-2.61-2.65-5.73,0-1.87.39-3.34,1.06-4.36-1,.42-1.97.74-2.82.96.31.88.48,1.97.48,3.24,0,3.96-1.47,6.15-4.05,6.15-2.28,0-3.82-2.13-3.86-5.99,0-3.78,1.57-5.9,3.8-6.04.04,0,.06,0,.1,0-.22-2.81-.04-6.91,2.13-10.18-.23.18-.48.33-.76.44-.42.17-.9.26-1.41.26-2.28,0-3.82-2.13-3.86-5.99,0-.18,0-.36,0-.53,0-.16.02-.31.03-.47,0-.1.02-.2.04-.3.02-.14.04-.29.06-.43.1-.66.26-1.26.48-1.78.08-.2.17-.39.26-.57.02-.02.03-.04.04-.06.12-.2.23-.38.37-.55.71-.91,1.67-1.39,2.78-1.39,1.37,0,2.42.68,3.07,1.94.1.19.19.39.27.61,0,.03.02.04.03.07.03.06.04.13.07.21.04.13.08.26.11.39.21.77.31,1.67.31,2.68,0,.95-.09,1.8-.26,2.55-.09.45-.22.87-.39,1.24.65-.8,1.34-1.52,2.03-2.17-.03-.22-.04-.45-.06-.68,0-.25-.02-.5-.03-.77,0-1,.11-1.9.31-2.66.05-.2.12-.39.19-.56,0-.02.02-.04.03-.06.07-.2.15-.39.24-.57.71-1.44,1.87-2.21,3.28-2.21,1.67,0,2.86,1.01,3.44,2.83.06.19.12.39.16.6,0,.02,0,.04,0,.06,0,0,0,.02,0,.03.04.18.08.38.11.57v.02c.54.08,1.03.28,1.47.58.69.48,1.17,1.2,1.43,2.09.89,2.83-.29,7.4-3.24,11.62-.89,1.27-2.02,2.3-3.23,3.12,2.35.1,3.69,2.27,3.69,5.89,0,.3,0,.58-.03.86,0,.05,0,.1,0,.15l1.3-1.25,1.39-1.34,2.22-2.14v-.52h-.04l-2.03,1.09-.3-1.2,2.55-1.36h1.35v.52l1.77-1.69h0l.57-.55,5.03-4.86.28-.27,5.75-5.53s.12-.04.16,0l4.28,4.45c3.76,3.91,5.67,8.9,5.74,13.92,0,.21,0,.4,0,.61-.05,5.33-2.17,10.61-6.3,14.59l-.16.15c.07,0,.14-.02.22-.02.13,0,.25,0,.38.03h0c2.21.22,3.47,2.36,3.47,5.87,0,3.96-1.47,6.15-4.05,6.15-2.28,0-3.82-2.13-3.86-5.99,0-.69.05-1.33.16-1.9.04-.26.1-.51.16-.75l-1.64,1.59c0,.19.02.38.02.57,0,.11,0,.22,0,.33,0,3.96-1.47,6.15-4.05,6.15-.74,0-1.41-.23-1.97-.69-.11-.08-.22-.18-.32-.29l-5.69,5.48c-.05.05-.05.13,0,.18l.24.19,6.86,5.22.79-.42h1.35v2.04l4.13,3.15c.19-3.47,1.79-5.39,4.02-5.39,2.46,0,3.86,2.19,3.86,5.9,0,2.01-.38,3.56-1.09,4.6,6.88,5.59,11.11,13.92,11.11,22.77v.3c0,.3,0,.6-.02.9-.14,3.39-.88,6.66-2.13,9.7.06.07.12.14.17.22.75,1.01,1.16,2.56,1.16,4.55,0,3.96-1.47,6.15-4.05,6.15-1.17,0-2.14-.58-2.82-1.68-.08-.12-.15-.25-.22-.39-.96,1.01-1.99,1.95-3.11,2.83l-11.34,8.9h.35v11.66h-1.52v-10.19h-.04l-2.03,1.09v-.03l-2.85,2.22c.02.19.03.39.03.58,0,.12,0,.23,0,.36,0,3.96-1.47,6.15-4.05,6.15-1.04,0-1.92-.46-2.58-1.32-.09-.12-.19-.25-.27-.39l-1,.78-.56.45-2.38,1.87-.5.39-9.96,7.8c.18.04.36.12.52.2,1.54.72,2.39,2.69,2.39,5.59,0,.82-.06,1.55-.19,2.21h5.07v-6.45h-.04l-2.03,1.09-.3-1.2,2.55-1.36h1.35v7.92h2.01l7.19-.03c.48,0,.94-.03,1.42-.04.07,0,.14,0,.22,0,.3,0,.6-.02.91-.04.18,0,.35,0,.53-.03.23,0,.48-.02.71-.04.24-.02.48-.03.72-.04.27-.02.53-.04.79-.05.35-.03.7-.05,1.04-.09.18,0,.35-.03.53-.04.23-.02.48-.04.71-.06.04,0,.08,0,.12,0l1.52-.16c.36-.04,1.09-.18,1.09-.18-.04-.18,12.23-2.43,12.25-2.33,0,0,0,.03,0,.04,11.53-2.99,22.24-8.01,31.73-14.66h-.59v-10.19h-.04l-2.03,1.09-.3-1.2,2.55-1.36h1.35v10.99c2.66-1.92,5.23-3.97,7.68-6.13v-3.39h-.04l-2.03,1.09-.3-1.2,2.55-1.36h1.35v3.48c6.5-5.98,12.19-12.83,16.88-20.37v-3.17h-.04l-2.03,1.09-.3-1.2,2.55-1.36h1.35v2.11c3.05-5.24,5.62-10.79,7.68-16.59v-5.57h-.04l-2.03,1.09-.3-1.2,2.55-1.36h1.35v2.35c2.48-8.32,3.89-17.11,4.05-26.2,0-.2,0-.4,0-.61,0-.4,0-.81,0-1.21V30.08h-4.07ZM145.06,144.72c-2.28,0-3.82-2.13-3.86-5.99,0-3.91,1.69-6.06,4.05-6.06s3.86,2.19,3.86,5.9c0,3.96-1.47,6.15-4.05,6.15ZM190.98,89.82h1.35v11.66h-1.52v-10.19h-.04l-2.03,1.09-.3-1.2,2.55-1.36ZM183.61,111.28c.03.08.04.16.07.25,1.44.78,2.24,2.72,2.24,5.51,0,3.96-1.47,6.15-4.05,6.15-.99,0-1.83-.39-2.48-1.17-.73.31-1.43.37-2.01.09-.7-.33-1.14-1.07-1.32-2.05h0c-.2-1.1-.07-2.5.4-3.97.06-.21.13-.42.22-.63.11-.31.24-.64.39-.95.18-.38.39-.74.65-1.06.13-.18.27-.36.42-.52,1.95-2.19,4.99-3.03,4.99-3.03,0,0,.21.48.45,1.27,0,.03.02.06.03.1ZM172.4,123v-10.19h-.04l-2.03,1.09-.3-1.2,2.55-1.36h1.35v11.66h-1.52ZM192.32,123h-1.52v-10.19h-.04l-2.03,1.09-.3-1.2,2.55-1.36h1.35v11.66ZM200.27,187.77c-2.28,0-3.82-2.13-3.86-5.99,0-3.91,1.69-6.06,4.05-6.06s3.86,2.19,3.86,5.9c0,3.96-1.47,6.15-4.05,6.15ZM200.27,166.25c-2.28,0-3.82-2.13-3.86-5.99,0-3.91,1.69-6.06,4.05-6.06s3.86,2.19,3.86,5.9c0,3.96-1.47,6.15-4.05,6.15ZM199.96,112.82l-2.03,1.09-.3-1.2,2.55-1.36h1.35v11.66h-1.52v-10.19h-.04ZM200.18,132.87h1.35v11.66h-1.52v-10.19h-.04l-2.03,1.09-.3-1.2,2.55-1.36ZM200.27,101.68c-2.28,0-3.82-2.13-3.86-5.99,0-3.91,1.69-6.06,4.05-6.06s3.86,2.19,3.86,5.9c0,3.96-1.47,6.15-4.05,6.15ZM199.96,69.77l-2.03,1.09-.3-1.2,2.55-1.36h1.35v11.66h-1.52v-10.19h-.04ZM200.27,58.64c-2.28,0-3.82-2.13-3.86-5.99,0-3.91,1.69-6.06,4.05-6.06s3.86,2.19,3.86,5.9c0,3.96-1.47,6.15-4.05,6.15ZM190.98,240.48h1.35v11.66h-1.52v-10.19h-.04l-2.03,1.09-.3-1.2,2.55-1.36ZM264.87,46.58c2.46,0,3.86,2.19,3.86,5.9,0,3.96-1.47,6.15-4.05,6.15-2.28,0-3.82-2.13-3.86-5.99,0-3.91,1.69-6.06,4.05-6.06ZM264.87,68.11c2.46,0,3.86,2.19,3.86,5.9,0,3.96-1.47,6.15-4.05,6.15-2.28,0-3.82-2.13-3.86-5.99,0-3.91,1.69-6.06,4.05-6.06ZM264.87,89.63c2.46,0,3.86,2.19,3.86,5.9,0,3.96-1.47,6.15-4.05,6.15-2.28,0-3.82-2.13-3.86-5.99,0-3.91,1.69-6.06,4.05-6.06ZM264.37,112.82l-2.03,1.09-.3-1.2,2.55-1.36h1.35v11.66h-1.52v-10.19h-.04ZM255.38,46.78h1.35v11.66h-1.52v-10.19h-.04l-2.03,1.09-.3-1.2,2.55-1.36ZM255.38,68.3h1.35v11.66h-1.52v-10.19h-.04l-2.03,1.09-.3-1.2,2.55-1.36ZM255.67,89.63c2.46,0,3.86,2.19,3.86,5.9,0,3.96-1.47,6.15-4.05,6.15-2.28,0-3.82-2.13-3.86-5.99,0-3.91,1.69-6.06,4.05-6.06ZM255.67,111.15c2.46,0,3.86,2.19,3.86,5.9,0,3.96-1.47,6.15-4.05,6.15-2.28,0-3.82-2.13-3.86-5.99,0-3.91,1.69-6.06,4.05-6.06ZM255.17,134.34l-2.03,1.09-.3-1.2,2.55-1.36h1.35v11.66h-1.52v-10.19h-.04ZM255.67,154.19c2.46,0,3.86,2.19,3.86,5.9,0,3.96-1.47,6.15-4.05,6.15-2.28,0-3.82-2.13-3.86-5.99,0-3.91,1.69-6.06,4.05-6.06ZM255.67,175.72c2.46,0,3.86,2.19,3.86,5.9,0,3.96-1.47,6.15-4.05,6.15-2.28,0-3.82-2.13-3.86-5.99,0-3.91,1.69-6.06,4.05-6.06ZM246.18,46.78h1.35v11.66h-1.52v-10.19h-.04l-2.03,1.09-.3-1.2,2.55-1.36ZM246.47,68.11c2.46,0,3.86,2.19,3.86,5.9,0,3.96-1.47,6.15-4.05,6.15-2.28,0-3.82-2.13-3.86-5.99,0-3.91,1.69-6.06,4.05-6.06ZM246.47,89.63c2.46,0,3.86,2.19,3.86,5.9,0,3.96-1.47,6.15-4.05,6.15-2.28,0-3.82-2.13-3.86-5.99,0-3.91,1.69-6.06,4.05-6.06ZM246.47,111.15c2.46,0,3.86,2.19,3.86,5.9,0,3.96-1.47,6.15-4.05,6.15-2.28,0-3.82-2.13-3.86-5.99,0-3.91,1.69-6.06,4.05-6.06ZM245.97,155.86l-2.03,1.09-.3-1.2,2.55-1.36h1.35v11.66h-1.52v-10.19h-.04ZM246,144.53v-10.19h-.04l-2.03,1.09-.3-1.2,2.55-1.36h1.35v11.66h-1.52ZM246.47,175.72c2.46,0,3.86,2.19,3.86,5.9,0,3.96-1.47,6.15-4.05,6.15-2.28,0-3.82-2.13-3.86-5.99,0-3.91,1.69-6.06,4.05-6.06ZM246.47,197.24c2.46,0,3.86,2.19,3.86,5.9,0,3.96-1.47,6.15-4.05,6.15-2.28,0-3.82-2.13-3.86-5.99,0-3.91,1.69-6.06,4.05-6.06ZM245.97,220.43l-2.03,1.09-.3-1.2,2.55-1.36h1.35v11.66h-1.52v-10.19h-.04ZM237.27,46.58c2.46,0,3.86,2.19,3.86,5.9,0,3.96-1.47,6.15-4.05,6.15-2.28,0-3.82-2.13-3.86-5.99,0-3.91,1.69-6.06,4.05-6.06ZM236.77,69.77l-2.03,1.09-.3-1.2,2.55-1.36h1.35v11.66h-1.52v-10.19h-.04ZM237.27,89.63c2.46,0,3.86,2.19,3.86,5.9,0,3.96-1.47,6.15-4.05,6.15-2.28,0-3.82-2.13-3.86-5.99,0-3.91,1.69-6.06,4.05-6.06ZM237.27,111.15c2.46,0,3.86,2.19,3.86,5.9,0,3.96-1.47,6.15-4.05,6.15-2.28,0-3.82-2.13-3.86-5.99,0-3.91,1.69-6.06,4.05-6.06ZM237.27,132.67c2.46,0,3.86,2.19,3.86,5.9,0,3.96-1.47,6.15-4.05,6.15-2.28,0-3.82-2.13-3.86-5.99,0-3.91,1.69-6.06,4.05-6.06ZM237.27,154.19c2.46,0,3.86,2.19,3.86,5.9,0,3.96-1.47,6.15-4.05,6.15-2.28,0-3.82-2.13-3.86-5.99,0-3.91,1.69-6.06,4.05-6.06ZM236.77,177.38l-2.03,1.09-.3-1.2,2.55-1.36h1.35v11.66h-1.52v-10.19h-.04ZM237.27,197.24c2.46,0,3.86,2.19,3.86,5.9,0,3.96-1.47,6.15-4.05,6.15-2.28,0-3.82-2.13-3.86-5.99,0-3.91,1.69-6.06,4.05-6.06ZM228.07,46.58c2.46,0,3.86,2.19,3.86,5.9,0,3.96-1.47,6.15-4.05,6.15-2.28,0-3.82-2.13-3.86-5.99,0-3.91,1.69-6.06,4.05-6.06ZM227.57,69.77l-2.03,1.09-.3-1.2,2.55-1.36h1.35v11.66h-1.52v-10.19h-.04ZM228.07,89.63c2.46,0,3.86,2.19,3.86,5.9,0,3.96-1.47,6.15-4.05,6.15-2.28,0-3.82-2.13-3.86-5.99,0-3.91,1.69-6.06,4.05-6.06ZM227.57,112.82l-2.03,1.09-.3-1.2,2.55-1.36h1.35v11.66h-1.52v-10.19h-.04ZM228.07,132.67c2.46,0,3.86,2.19,3.86,5.9,0,3.96-1.47,6.15-4.05,6.15-2.28,0-3.82-2.13-3.86-5.99,0-3.91,1.69-6.06,4.05-6.06ZM227.57,155.86l-2.03,1.09-.3-1.2,2.55-1.36h1.35v11.66h-1.52v-10.19h-.04ZM228.07,175.72c2.46,0,3.86,2.19,3.86,5.9,0,3.96-1.47,6.15-4.05,6.15-2.28,0-3.82-2.13-3.86-5.99,0-3.91,1.69-6.06,4.05-6.06ZM228.07,197.24c2.46,0,3.86,2.19,3.86,5.9,0,3.96-1.47,6.15-4.05,6.15-2.28,0-3.82-2.13-3.86-5.99,0-3.91,1.69-6.06,4.05-6.06ZM218.58,46.78h1.35v11.66h-1.52v-10.19h-.04l-2.03,1.09-.3-1.2,2.55-1.36ZM218.87,68.11c2.46,0,3.86,2.19,3.86,5.9,0,3.96-1.47,6.15-4.05,6.15-2.28,0-3.82-2.13-3.86-5.99,0-3.91,1.69-6.06,4.05-6.06ZM218.36,91.3l-2.03,1.09-.3-1.2,2.55-1.36h1.35v11.66h-1.52v-10.19h-.04ZM218.87,111.15c2.46,0,3.86,2.19,3.86,5.9,0,3.96-1.47,6.15-4.05,6.15-2.28,0-3.82-2.13-3.86-5.99,0-3.91,1.69-6.06,4.05-6.06ZM218.87,132.67c2.46,0,3.86,2.19,3.86,5.9,0,3.96-1.47,6.15-4.05,6.15-2.28,0-3.82-2.13-3.86-5.99,0-3.91,1.69-6.06,4.05-6.06ZM218.87,154.19c2.46,0,3.86,2.19,3.86,5.9,0,3.96-1.47,6.15-4.05,6.15-2.28,0-3.82-2.13-3.86-5.99,0-3.91,1.69-6.06,4.05-6.06ZM218.36,177.38l-2.03,1.09-.3-1.2,2.55-1.36h1.35v11.66h-1.52v-10.19h-.04ZM218.87,197.24c2.46,0,3.86,2.19,3.86,5.9,0,3.96-1.47,6.15-4.05,6.15-2.28,0-3.82-2.13-3.86-5.99,0-3.91,1.69-6.06,4.05-6.06ZM218.87,218.76c2.46,0,3.86,2.19,3.86,5.9,0,3.96-1.47,6.15-4.05,6.15-2.28,0-3.82-2.13-3.86-5.99,0-3.91,1.69-6.06,4.05-6.06ZM218.87,240.28c2.46,0,3.86,2.19,3.86,5.9,0,3.96-1.47,6.15-4.05,6.15-2.28,0-3.82-2.13-3.86-5.99,0-3.91,1.69-6.06,4.05-6.06ZM209.38,46.78h1.35v11.66h-1.52v-10.19h-.04l-2.03,1.09-.3-1.2,2.55-1.36ZM209.38,68.3h1.35v11.66h-1.52v-10.19h-.04l-2.03,1.09-.3-1.2,2.55-1.36ZM209.67,89.63c2.46,0,3.86,2.19,3.86,5.9,0,3.96-1.47,6.15-4.05,6.15-2.28,0-3.82-2.13-3.86-5.99,0-3.91,1.69-6.06,4.05-6.06ZM209.16,134.34l-2.03,1.09-.3-1.2,2.55-1.36h1.35v11.66h-1.52v-10.19h-.04ZM209.2,123v-10.19h-.04l-2.03,1.09-.3-1.2,2.55-1.36h1.35v11.66h-1.52ZM209.67,154.19c2.46,0,3.86,2.19,3.86,5.9,0,3.96-1.47,6.15-4.05,6.15-2.28,0-3.82-2.13-3.86-5.99,0-3.91,1.69-6.06,4.05-6.06ZM209.16,177.38l-2.03,1.09-.3-1.2,2.55-1.36h1.35v11.66h-1.52v-10.19h-.04ZM209.67,197.24c2.46,0,3.86,2.19,3.86,5.9,0,3.96-1.47,6.15-4.05,6.15-2.28,0-3.82-2.13-3.86-5.99,0-3.91,1.69-6.06,4.05-6.06ZM209.16,241.95l-2.03,1.09-.3-1.2,2.55-1.36h1.35v11.66h-1.52v-10.19h-.04ZM209.2,230.62v-10.19h-.04l-2.03,1.09-.3-1.2,2.55-1.36h1.35v11.66h-1.52ZM196.41,246.35c0-3.91,1.69-6.06,4.05-6.06s3.86,2.19,3.86,5.9c0,3.96-1.47,6.15-4.05,6.15-2.28,0-3.82-2.13-3.86-5.99ZM227.87,230.81c-2.28,0-3.82-2.13-3.86-5.99,0-3.91,1.69-6.06,4.05-6.06s3.86,2.19,3.86,5.9c0,3.96-1.47,6.15-4.05,6.15ZM237.07,230.81c-2.28,0-3.82-2.13-3.86-5.99,0-3.91,1.69-6.06,4.05-6.06s3.86,2.19,3.86,5.9c0,3.96-1.47,6.15-4.05,6.15ZM255.47,209.29c-2.28,0-3.82-2.13-3.86-5.99,0-3.91,1.69-6.06,4.05-6.06s3.86,2.19,3.86,5.9c0,3.96-1.47,6.15-4.05,6.15ZM260.82,138.73c0-3.91,1.69-6.06,4.05-6.06s3.86,2.19,3.86,5.9c0,3.96-1.47,6.15-4.05,6.15-2.28,0-3.82-2.13-3.86-5.99ZM264.37,155.86l-2.03,1.09-.3-1.2,2.55-1.36h1.35v11.66h-1.52v-10.19h-.04ZM264.4,187.57v-10.19h-.04l-2.03,1.09-.3-1.2,2.55-1.36h1.35v11.66h-1.52ZM166.8,95.17l-.93.83-1.15,1.02v.6l2.04-1.82c.66-.13,1.35-.21,2.04-.21,0-.21,0-.4.03-.6.02-.4.06-.79.13-1.15.04-.26.08-.5.14-.74l-2.3,2.05Z"/><path class="cls-3" d="M264.78,47.8c-1.38,0-2.39,1.69-2.39,4.86s.93,4.75,2.37,4.75c1.61,0,2.39-1.88,2.39-4.86s-.73-4.75-2.37-4.75Z"/><path class="cls-3" d="M264.78,90.84c-1.38,0-2.39,1.69-2.39,4.86s.93,4.75,2.37,4.75c1.61,0,2.39-1.88,2.39-4.86s-.73-4.75-2.37-4.75Z"/><path class="cls-3" d="M264.78,69.32c-1.38,0-2.39,1.69-2.39,4.86s.93,4.75,2.37,4.75c1.61,0,2.39-1.88,2.39-4.86s-.73-4.75-2.37-4.75Z"/><path class="cls-3" d="M253.19,31.14c0,3.03.93,4.75,2.37,4.75,1.61,0,2.39-1.88,2.39-4.86,0-.33-.01-.65-.03-.95h-4.68c-.03.33-.04.68-.04,1.06Z"/><path class="cls-3" d="M138.34,138.64c0-2.87-.73-4.75-2.37-4.75-1.38,0-2.39,1.69-2.39,4.86,0,.58.04,1.1.11,1.58l3.49,2.66c.77-.75,1.15-2.27,1.15-4.34Z"/><path class="cls-3" d="M255.58,198.45c-1.38,0-2.39,1.69-2.39,4.86s.93,4.75,2.37,4.75c1.61,0,2.39-1.88,2.39-4.86s-.73-4.75-2.37-4.75Z"/><path class="cls-3" d="M146.32,269.92h4.29c-.12-.62-.2-1.3-.21-2.06,0-.82.09-1.55.23-2.21l-4.32,3.38v.89Z"/><path class="cls-3" d="M246.38,69.32c-1.38,0-2.39,1.69-2.39,4.86s.93,4.75,2.37,4.75c1.61,0,2.39-1.88,2.39-4.86s-.73-4.75-2.37-4.75Z"/><path class="cls-3" d="M145.17,133.89c-1.38,0-2.39,1.69-2.39,4.86s.93,4.75,2.37,4.75c1.61,0,2.39-1.88,2.39-4.86s-.73-4.75-2.37-4.75Z"/><path class="cls-3" d="M255.58,176.93c-1.38,0-2.39,1.69-2.39,4.86s.93,4.75,2.37,4.75c1.61,0,2.39-1.88,2.39-4.86s-.73-4.75-2.37-4.75Z"/><path class="cls-3" d="M163.57,133.89c-1.38,0-2.39,1.69-2.39,4.86,0,2.94.88,4.64,2.25,4.73l2.21-2.12c.2-.75.3-1.66.3-2.72,0-2.87-.73-4.75-2.37-4.75Z"/><path class="cls-3" d="M191.16,165.02c1.61,0,2.39-1.88,2.39-4.86s-.73-4.75-2.37-4.75c-1.38,0-2.39,1.69-2.39,4.86s.93,4.75,2.37,4.75Z"/><path class="cls-3" d="M151.99,267.88c0,.77.06,1.45.17,2.04h4.41c.11-.63.17-1.34.17-2.15,0-2.87-.73-4.75-2.37-4.75-.16,0-.32.03-.47.07l-.98.77c-.57.79-.93,2.14-.93,4.02Z"/><path class="cls-3" d="M255.58,155.41c-1.38,0-2.39,1.69-2.39,4.86s.93,4.75,2.37,4.75c1.61,0,2.39-1.88,2.39-4.86s-.73-4.75-2.37-4.75Z"/><path class="cls-3" d="M246.38,90.84c-1.38,0-2.39,1.69-2.39,4.86s.93,4.75,2.37,4.75c1.61,0,2.39-1.88,2.39-4.86s-.73-4.75-2.37-4.75Z"/><path class="cls-3" d="M191.16,78.93c1.61,0,2.39-1.88,2.39-4.86,0-2.75-.68-4.57-2.17-4.72-.7,1.71-1.56,3.35-2.58,4.9.02,2.99.94,4.68,2.37,4.68Z"/><path class="cls-2" d="M168.13,198.16l-12.21-8.82c-.5-.36-1.19-.31-1.63.12l-11.3,10.89-4.65,4.47h0s-2.33,2.24-2.33,2.24l-.55.52-2.22,2.13-.47.45-5.85,5.63-.51.49-2.57,2.46-.59.58-2.5,2.4h0c-2.77-2.87-4.78-6.21-6.01-9.76-.1-.26-.18-.52-.26-.78-.83-2.63-1.25-5.36-1.25-8.1,0-1.4.11-2.8.32-4.18-1.06.16-2.18.24-3.34.24-6.78,0-12.27-6.38-12.27-6.38,0,0,5.49-6.39,12.27-6.39,2.94,0,5.65.54,7.76,1.44,1-1.46,2.17-2.84,3.5-4.12l10.32-9.94c.57-.56.5-1.49-.14-1.95l-20.79-15c-4.56-3.29-8-7.71-10.04-12.76-1.23-3.01-1.96-6.25-2.13-9.6-.47-8.97,3.11-17.53,9.81-23.5l17.86-15.93.52-.46,1.8-1.61.71-.64,36.45-32.49c.39-.35.61-.79.64-1.29,0-.05,0-.11,0-.16,0-.58-.23-1.06-.67-1.44l-31.02-26.59c-.23-.2-.53-.3-.83-.3h-21.47c-45.56,0-82.5,36.94-82.5,82.5v156.05c0,.71,71.24,1.28,71.24,1.28.36,0,.68-.14.93-.4.4-.41.83-.82,1.31-1.18l38.65-30.28.56-.44,10.06-7.89c-2.41.76-5.24,1.2-8.26,1.2-1.15,0-2.27-.14-3.35-.39-.23-.04-.47-.11-.69-.17-1.41-.38-2.74-.93-3.96-1.56-.25-.13-.5-.27-.74-.4-4.33-2.45-7.19-5.77-7.19-5.77,0,0,1.66-1.93,4.37-3.93.21-.15.41-.3.64-.46,1.11-.78,2.38-1.54,3.76-2.19.39-.18.79-.36,1.2-.51,1.69-.66,3.51-1.12,5.42-1.19.19-.02.38-.02.56-.02,8.82,0,15.95,3.71,15.95,8.3,0,.4-.05.81-.16,1.2l11.25-8.82,5.49-4.3.37-.28c.19-.14.33-.3.45-.48.56-.54,1.09-1.09,1.61-1.65.2-.3.29-.65.28-1.05,0-.64-11.08-8.72-11.6-9.08ZM123.08,94.04c-1.53,3.26-4.14,5.25-5.84,4.45-1.7-.8-1.82-4.09-.29-7.34,1.53-3.25,5.85-4.44,5.85-4.44,0,0,1.26,2.82.8,5.66-.04.21-.09.42-.14.64-.09.35-.22.7-.38,1.04ZM129.42,76.17c1.08.25,1.56,2.13,1.08,4.21-.48,2.08-2.82,3.31-2.82,3.31,0,0-1.57-2.14-1.09-4.21.48-2.08,1.75-3.56,2.83-3.31ZM122.81,55.07s5.38,6.08,4.51,12.55c-.78,5.71-3.54,10.18-6.49,10.83-.21.05-.43.08-.65.08-.18.02-.37,0-.55-.02-3-.4-4.92-4.88-4.7-10.42,0-.22.02-.43.03-.65h0c.04-.48.08-.98.15-1.47.06-.44.14-.87.26-1.29.05-.21.12-.41.18-.62,1.76-5.43,7.25-8.99,7.25-8.99ZM95.8,55.59c-.05.22-.13.41-.26.59-.33.54-.93.89-1.61.89-1.06,0-1.93-.86-1.93-1.93s.87-1.93,1.93-1.93,1.93.87,1.93,1.93c0,.15-.02.3-.05.45ZM99.1,65.51c.48-2.08,1.75-3.56,2.83-3.31,1.08.25,1.56,2.13,1.09,4.21-.2.83-.69,1.53-1.23,2.07-.19.2-.39.38-.57.52h0c-.57.47-1.03.72-1.03.72,0,0-1.56-2.14-1.09-4.21ZM106.32,53.24c.48-2.08,1.75-3.56,2.83-3.31,1.08.25,1.56,2.13,1.08,4.21-.48,2.07-2.83,3.31-2.83,3.31,0,0-1.57-2.14-1.09-4.21ZM91.5,43.72c.7-.85,2.61-.46,4.26.89,1.65,1.35,1.73,3.99,1.73,3.99,0,0-2.61.47-4.27-.88-1.65-1.35-2.42-3.14-1.72-4ZM89.79,73.58c-1.07,0-1.93-.87-1.93-1.93s.86-1.93,1.93-1.93c.84,0,1.57.55,1.83,1.32.06.19.1.39.1.61v.03l-1.06.16.9.59c-.09.2-.22.38-.36.54-.36.38-.86.61-1.41.61ZM91.37,80.54s2-2.32,5.05-4.11c.21-.13.41-.24.63-.36,1.47-.79,3.16-1.42,4.96-1.61.21-.03.42-.04.64-.05.19,0,.37-.02.56-.02,6.54,0,11.84,2.76,11.84,6.15s-5.3,6.16-11.84,6.16-11.83-6.16-11.83-6.16ZM128.54,231.9c0,.49-.03,1-.08,1.52-.42,3.93-4.45,6.71-4.45,6.71,0,0-3.35-3.58-2.93-7.5.3-2.84,1.43-5.19,2.81-6.19.2-.15.4-.27.62-.35.33-.14.68-.2,1.02-.16,1.65.17,2.82,2.39,2.99,5.29.02.22.03.44.03.67Z"/><path class="cls-7" d="M160.52,104.9l-11.69,6.24-.28.15-.86.47-.65.34-.51.28-.44.23-.15-.29-.15-.28.35-.19,2.39-1.27.39-.21h0s1.67-.91,1.67-.91l9.34-4.99c.19.14.39.29.59.41Z"/><path class="cls-7" d="M177.99,112.34c-.15.16-.3.34-.42.52l-4.02-5.62c.22-.04.46-.1.67-.16l3.77,5.26Z"/><path class="cls-7" d="M173.77,114.61l2.76.26c-.09.21-.16.42-.22.63l-2.54-.23-1.52-.14-5-.48h-.13c-.1-.02-.2-.03-.3-.04l-1.17-.12-4.32-.4-1.54-.14-1.92-.18-1.63-.15-3.83-.36-1.52-.14-1.86-.18-.65-.05-1.35-.13h-.07l-.32-.04-.29-.03-.41-.04.03-.32.03-.32.22.02.86.08.55.05.4.04,1.08.1,2.09.2,1.57.15h0l3.2.3,1.7.16,2.34.22,1.52.14,3.97.37,1.63.15,5.13.48,1.52.14Z"/><path class="cls-1" d="M179.86,115.51l-.03.32-.37-.04c0-.09,0-.18.02-.26l.12.16.26-.19Z"/><path class="cls-6" d="M162.12,234.07c.64,1.33-.91,3.4-3.46,4.63-2.55,1.23-5.78-.17-5.78-.17,0,0,.91-3.4,3.46-4.63,2.55-1.23,5.14-1.15,5.78.17Z"/><path class="cls-6" d="M179.86,115.51l-.03.32-.37-.04c0-.09,0-.18.02-.26l.12.16.26-.19Z"/><path class="cls-3" d="M184.42,102.51c.73-.89,2.7-.48,4.42.91,1.71,1.4,1.79,4.14,1.79,4.14,0,0-2.7.48-4.42-.91-1.71-1.4-2.52-3.25-1.79-4.14Z"/><path class="cls-4" d="M166.61,95.2l-2.04,1.82v-.6l1.15-1.02c.3-.08.59-.15.9-.2Z"/><path class="cls-6" d="M181.57,125.99c.73.89-.07,2.75-1.78,4.15-1.71,1.4-4.42.93-4.42.93,0,0,.07-2.75,1.78-4.15s3.69-1.82,4.42-.93Z"/><circle class="cls-6" cx="194.02" cy="114.6" r="1.93"/><path class="cls-7" d="M152.3,95.08l-9.13-2.04-3.03-.68h-14.1l-5.21-13.9c-.21.05-.43.08-.65.08l5.17,13.82h-1.75c-.04.21-.09.42-.14.64h2.13l.77,2.06,3.18,8.48.79,2.11,2.75-1.1,9.1-3.64.6-.24,9.65-3.86,2.73-1.09-2.87-.64ZM152.2,96.22l-9.59,3.84-.6.23-9.05,3.62-2.26.91-.66-1.78-3.16-8.43-.6-1.61h13.76l.49.11,2.5.56,9.12,2.04.84.19-.8.32Z"/><path class="cls-7" d="M157.29,120.71c-.11.2-.22.38-.36.54l-.12-.09-.99-.77-3.97-3.08-1.59-1.23-1.38-1.08-.68-.53-1.2-.93-.52-.39-.36-.29-.46-.35-.91-3.08-2.56-8.53-.18-.62-1.36-4.54-.82-2.75-.06-.22.62-.19.15.52.74,2.47,1.35,4.48.18.61,2.57,8.59.78,2.6.04.16.04.12.31.24.43.33.04.04,1.59,1.23.13.11,1.6,1.24,1.51,1.17,4.28,3.31,1.09.84.09.07Z"/><path class="cls-3" d="M156.2,135.08c-.96.2-1.56.26-1.56.26,0,0-.21-.79-.36-2.05.93.03,1.56.68,1.92,1.79Z"/><path class="cls-3" d="M157.52,120.24c-.07.17-.14.32-.23.47-.11.2-.22.38-.36.54-.19.26-.4.48-.65.65.05-.09.11-.17.17-.26.12-.16.23-.32.36-.48.12-.18.25-.35.39-.52.11-.13.21-.27.32-.39Z"/><path class="cls-3" d="M163.68,132.08c-1.02.7-2.12,1.26-3.17,1.7.72-1.12,1.77-1.7,3-1.7.06,0,.12,0,.17,0Z"/><circle class="cls-3" cx="145.94" cy="112.32" r="3.13"/><circle class="cls-6" cx="154.09" cy="95.8" r="1.93"/><circle class="cls-6" cx="140.07" cy="92.68" r="3.13"/><circle class="cls-4" cx="131.16" cy="104.59" r="1.93"/><circle class="cls-6" cx="160.45" cy="247.33" r="1.93"/><path class="cls-6" d="M185.14,268.4c-.36.04-.73.09-1.09.13,0,0,0-.03,0-.04l1.09-.09Z"/><path class="cls-4" d="M179.57,263.86l-.19.11s.11-.13.19-.11Z"/><path class="cls-7" d="M123.85,218.75l.65,7.34c-.21.08-.42.2-.62.35l-.63-7.11-.39-4.35-.06-.71-.1-1.17-.17-1.89.65-.05.17,1.89.13,1.47.06.71.3,3.52Z"/><path class="cls-7" d="M136.48,228.79l-7.95,3.1c0-.23,0-.46-.03-.67l7.23-2.83c.24.13.49.27.74.4Z"/><path class="cls-7" d="M144.4,245.4l-1.71-7.79-1.55-7.08c-.23-.04-.47-.11-.69-.17l1.69,7.69,1.64,7.5.4,1.85.63-.13-.4-1.86ZM137.65,214.59l-1.65-7.52-1.85-8.39h0s-1.77-8.07-1.77-8.07l-3,7.55-1.39,3.5-.9,2.25,4.85,5.35.82.91,4.29,4.73.25,1.16c.39-.18.79-.36,1.2-.51l-.86-.95ZM133.24,209.72l-.95-1.04-4.45-4.91.73-1.83,1.4-3.51,2.24-5.64,1.32,6.03,1.93,8.77,1.33,6.04-3.54-3.91ZM126.92,215.8l-3.44-1.27-.67-.25-8.33-3.08-4.3-1.58-1.78-.66-.21.6,1.78.65,4.78,1.77,8.13,3,.67.25,2.87,1.06,6.5,2.4c.21-.15.41-.3.64-.46l-6.63-2.44Z"/><path class="cls-6" d="M125.3,201.71c1.08-1,3.52-.12,5.44,1.97s1.51,5.58,1.51,5.58c0,0-3.52.12-5.44-1.97-1.92-2.08-2.6-4.58-1.51-5.58Z"/><circle class="cls-4" cx="122.86" cy="211.19" r="1.93"/><circle class="cls-6" cx="108.29" cy="209.26" r="1.93"/><path class="cls-7" d="M95.8,55.59c-.05.22-.13.41-.26.59l19.85,8.5c.05-.21.12-.41.18-.62l-19.76-8.47ZM91.55,72.43c-.09.2-.22.38-.36.54l5.22,3.46c.21-.13.41-.24.63-.36l-5.49-3.64ZM114.97,67.45l-13.04,2.01-.14-.97c-.19.2-.39.38-.57.52h0s.08.55.08.55l-1.11.17-8.56,1.32c.06.19.1.39.1.61v.03l9.67-1.49.62,4.27c.21-.03.42-.04.64-.05l-.62-4.31,12.92-1.99c0-.22.02-.43.03-.65Z"/><path class="cls-6" d="M91.71,71.68c0,.27-.06.52-.16.75l-.9-.59,1.06-.16Z"/><path class="cls-7" d="M143.63,214.37l-2.26-33.5-8.76,9.93-.44-.39,9.15-10.37-.97-14.31,1.91-.45,15.31-3.66,1.73-1.96,19.25-21.83,3.05-.99,13.11-4.29-14.77,24.33-22.05,5.27-15.96,18.09.09,1.29,2.21,32.79-.59.04ZM140.97,166.19l.89,13.22,15.02-17.02-15.91,3.81ZM178.88,138.33l-20.32,23.04,20.98-5.02,13.81-22.75-14.48,4.73Z"/><circle class="cls-6" cx="178.71" cy="138.08" r="3.13"/><circle class="cls-3" cx="179.73" cy="156.61" r="3.59"/><circle class="cls-6" cx="140.65" cy="166.52" r="1.93"/><circle class="cls-6" cx="141.45" cy="179.78" r="1.79"/><circle class="cls-6" cx="132.38" cy="192.67" r="6.25"/><circle class="cls-4" cx="194.02" cy="133.07" r="1.93"/><circle class="cls-4" cx="157.72" cy="161.88" r="2.71"/><circle class="cls-6" cx="144.49" cy="247.33" r="1.93"/></svg>