<?xml version="1.0" encoding="UTF-8"?><svg id="Ebene_1" xmlns="http://www.w3.org/2000/svg" xmlns:xlink="http://www.w3.org/1999/xlink" viewBox="0 0 625 300"><defs><style>.cls-1{fill:#eaeaea;}.cls-2{fill:url(#Unbenannter_Verlauf_6);}.cls-3{fill:#025d44;}.cls-4{fill:#027734;}.cls-5{fill:url(#Unbenannter_Verlauf_38);}.cls-6{fill:#71c376;}.cls-7{fill:#333;}</style><linearGradient id="Unbenannter_Verlauf_38" x1="91.06" y1="150" x2="164.42" y2="150" gradientUnits="userSpaceOnUse"><stop offset="0" stop-color="#c0ddba"/><stop offset=".24" stop-color="#97c1a0"/><stop offset=".77" stop-color="#317c61"/><stop offset="1" stop-color="#025d44"/></linearGradient><linearGradient id="Unbenannter_Verlauf_6" x1="42.5" y1="150" x2="118.61" y2="150" gradientUnits="userSpaceOnUse"><stop offset="0" stop-color="#71c376"/><stop offset="1" stop-color="#025d44"/></linearGradient></defs><path class="cls-5" d="M111.46,131.95h0l-2.03-.19h-.17s-.61-.07-.61-.07l-.17-.02c-.1.39-.16.84-.16,1.35,0,.26.02.51.05.74.01-.01.03-.03.05-.04.24-.21.47-.41.71-.58.03-.02.05-.04.08-.06.78-.57,1.57-.93,2.27-1.04h.02c.2-.03.39-.05.57-.03l-.59-.06ZM107.51,131.69s-.01-.07-.02-.1h-.01l-.82-.08h-.04s-1.68-.16-1.68-.16l-.23-.02c-.02.05-.04.1-.06.15-.02.05-.04.11-.05.17-.03.08-.05.17-.06.26-.02.07-.03.15-.04.23,0,.05-.01.08-.02.13-.02.14-.03.29-.04.44,0,.05,0,.09,0,.13,0,.04,0,.08,0,.12l.08.06,2.09,1.62.15.11.41.31.05.04c.05-.07.08-.15.12-.24h0c.21-.5.33-1.15.33-1.93,0-.47-.05-.89-.14-1.26ZM118.54,132.56l-.06-.08s0,.09,0,.13l.19.02v-.16s-.12.1-.12.1ZM118.54,132.56l-.06-.08s0,.09,0,.13l.19.02v-.16s-.12.1-.12.1ZM111.46,131.95h0l-2.03-.19h-.17s-.61-.07-.61-.07l-.17-.02c-.1.39-.16.84-.16,1.35,0,.26.02.51.05.74.01-.01.03-.03.05-.04.24-.21.47-.41.71-.58.03-.02.05-.04.08-.06.78-.57,1.57-.93,2.27-1.04h.02c.2-.03.39-.05.57-.03l-.59-.06ZM107.51,131.69s-.01-.07-.02-.1h-.01l-.82-.08h-.04s-1.68-.16-1.68-.16l-.23-.02c-.02.05-.04.1-.06.15-.02.05-.04.11-.05.17-.03.08-.05.17-.06.26-.02.07-.03.15-.04.23,0,.05-.01.08-.02.13-.02.14-.03.29-.04.44,0,.05,0,.09,0,.13,0,.04,0,.08,0,.12l.08.06,2.09,1.62.15.11.41.31.05.04c.05-.07.08-.15.12-.24h0c.21-.5.33-1.15.33-1.93,0-.47-.05-.89-.14-1.26ZM118.54,132.56l-.06-.08s0,.09,0,.13l.19.02v-.16s-.12.1-.12.1ZM118.54,132.56l-.06-.08s0,.09,0,.13l.19.02v-.16s-.12.1-.12.1ZM111.46,131.95h0l-2.03-.19h-.17s-.61-.07-.61-.07l-.17-.02c-.1.39-.16.84-.16,1.35,0,.26.02.51.05.74.01-.01.03-.03.05-.04.24-.21.47-.41.71-.58.03-.02.05-.04.08-.06.78-.57,1.57-.93,2.27-1.04h.02c.2-.03.39-.05.57-.03l-.59-.06ZM107.51,131.69s-.01-.07-.02-.1h-.01l-.82-.08h-.04s-1.68-.16-1.68-.16l-.23-.02c-.02.05-.04.1-.06.15-.02.05-.04.11-.05.17-.03.08-.05.17-.06.26-.02.07-.03.15-.04.23,0,.05-.01.08-.02.13-.02.14-.03.29-.04.44,0,.05,0,.09,0,.13,0,.04,0,.08,0,.12l.08.06,2.09,1.62.15.11.41.31.05.04c.05-.07.08-.15.12-.24h0c.21-.5.33-1.15.33-1.93,0-.47-.05-.89-.14-1.26ZM118.54,132.56l-.06-.08s0,.09,0,.13l.19.02v-.16s-.12.1-.12.1ZM118.54,132.56l-.06-.08s0,.09,0,.13l.19.02v-.16s-.12.1-.12.1ZM111.46,131.95h0l-2.03-.19h-.17s-.61-.07-.61-.07l-.17-.02c-.1.39-.16.84-.16,1.35,0,.26.02.51.05.74.01-.01.03-.03.05-.04.24-.21.47-.41.71-.58.03-.02.05-.04.08-.06.78-.57,1.57-.93,2.27-1.04h.02c.2-.03.39-.05.57-.03l-.59-.06ZM107.51,131.69s-.01-.07-.02-.1h-.01l-.82-.08h-.04s-1.68-.16-1.68-.16l-.23-.02c-.02.05-.04.1-.06.15-.02.05-.04.11-.05.17-.03.08-.05.17-.06.26-.02.07-.03.15-.04.23,0,.05-.01.08-.02.13-.02.14-.03.29-.04.44,0,.05,0,.09,0,.13,0,.04,0,.08,0,.12l.08.06,2.09,1.62.15.11.41.31.05.04c.05-.07.08-.15.12-.24h0c.21-.5.33-1.15.33-1.93,0-.47-.05-.89-.14-1.26ZM118.54,132.56l-.06-.08s0,.09,0,.13l.19.02v-.16s-.12.1-.12.1ZM118.54,132.56l-.06-.08s0,.09,0,.13l.19.02v-.16s-.12.1-.12.1ZM111.46,131.95h0l-2.03-.19h-.17s-.61-.07-.61-.07l-.17-.02c-.1.39-.16.84-.16,1.35,0,.26.02.51.05.74.01-.01.03-.03.05-.04.24-.21.47-.41.71-.58.03-.02.05-.04.08-.06.78-.57,1.57-.93,2.27-1.04h.02c.2-.03.39-.05.57-.03l-.59-.06ZM107.51,131.69s-.01-.07-.02-.1h-.01l-.82-.08h-.04s-1.68-.16-1.68-.16l-.23-.02c-.02.05-.04.1-.06.15-.02.05-.04.11-.05.17-.03.08-.05.17-.06.26-.02.07-.03.15-.04.23,0,.05-.01.08-.02.13-.02.14-.03.29-.04.44,0,.05,0,.09,0,.13,0,.04,0,.08,0,.12l.08.06,2.09,1.62.15.11.41.31.05.04c.05-.07.08-.15.12-.24h0c.21-.5.33-1.15.33-1.93,0-.47-.05-.89-.14-1.26ZM118.54,132.56l-.06-.08s0,.09,0,.13l.19.02v-.16s-.12.1-.12.1ZM118.54,132.56l-.06-.08s0,.09,0,.13l.19.02v-.16s-.12.1-.12.1ZM111.46,131.95h0l-2.03-.19h-.17s-.61-.07-.61-.07c-.04.09-.07.19-.1.29-.1.39-.16.84-.16,1.35,0,.14,0,.26.01.39.24-.21.47-.41.71-.58.03-.02.05-.04.08-.06.78-.57,1.57-.93,2.27-1.04h.02c.2-.03.39-.05.57-.03l-.59-.06ZM107.51,131.69s-.02-.07-.04-.1l-.82-.08h-.04s-1.68-.16-1.68-.16c-.24.36-.39.93-.43,1.68l2.09,1.62.15.11.41.31.05.04c.05-.07.08-.15.12-.24h0c.09-.11.18-.22.27-.33.09-.38.13-.81.13-1.29,0-.52-.05-.97-.16-1.36-.01-.07-.03-.14-.05-.2ZM116.59,89.04l.58.5,3.26,2.8c3.2,2.75,5.07,6.75,5.11,10.98.01,1.65-.25,3.27-.77,4.8-.06.21-.14.41-.21.61-.37.97-.85,1.9-1.42,2.77-.21.31-.42.62-.66.93-.55.71-1.16,1.37-1.84,1.97l-5.23,4.66-.71.63-.52.46-1.14,1.01-1.12.99s.06-.01.1-.02c.31-.05.62-.09.94-.09h.09c.24,0,.48,0,.71.03.03,0,.06,0,.09,0,.84.05,1.62.21,2.32.41.03,0,.06.02.09.03.24.08.47.16.68.26h0s.07.03.1.05c.26.11.49.24.71.37h0s.02.02.03.02c.45.27.81.59,1.06.94.07.1.13.2.18.3t0,0c.1.21.17.41.19.63,0,.07.01.13.01.2,0,1.27-1.39,2.36-3.43,2.89-.11.03-.23.06-.34.08-.76.17-1.59.26-2.46.26-1.6,0-3.06-.7-4.16-1.45-.1-.06-.21-.14-.3-.21-.39-.28-.72-.56-1-.8l-3.75,3.34-.91.81-.13.11-.37.33-.12.11-.32.28v.02s-.11.09-.11.09l-.13.12-1.07.95-.88.79-.76.67-.89.79-1.79,1.59-1.09.98-3.73,3.32c-.22.2-.33.41-.39.62-.05.16-.05.31-.05.43.02.28.12.68.54.98l12.86,9.79s.05.02.07,0l5.19-5,.53-.51,1.21-1.16.92-.88.58-.56.71-.68,1.21-1.16.78-.75,1.11-1.07,2.74-2.64,2.88-2.77s.05-.02.08,0h0s2.17,2.27,2.17,2.27c1.83,1.91,2.8,4.32,2.92,6.77,0,.1,0,.21,0,.31.05,2.71-.95,5.43-2.98,7.5h0c-.07.08-.14.15-.22.22l-1.95,1.88-.74.72-.83.8-1.74,1.67-.5.48-2.93,2.83-.13.12s-.03.06,0,.09l8.77,6.68.77.55c3.83,2.76,6.25,7.13,6.35,11.81v.15c0,.25,0,.51,0,.76-.07,1.65-.41,3.25-1,4.74-.12.31-.26.6-.4.9h0c-.52,1.11-1.19,2.15-1.98,3.1-.17.2-.35.4-.52.59-.52.56-1.08,1.07-1.7,1.55l-5.59,4.38-.77.61-2.48,1.95-.81.63-1.99,1.56-.57.45-.4.31-.29.23-1.29,1.02-.26.2-4.96,3.88-.61.48-1.17.92h0l-.97.76-2.13,1.67-.44.35s-.02.1.04.1h10.86c-.06-.1-.11-.21-.16-.31-.54-1.05-.6-2.04-.07-2.53.62-.57,1.86-.27,3.04.65v1.37l.77-.34v.36l-.55.24.55-.05v.28c.24,0,.48-.01.72-.02h0c.04.1.08.2.11.3.18,0,.36,0,.54-.02.09,0,.18,0,.27-.01.12,0,.24,0,.36-.02.18-.01.35-.02.53-.04.14,0,.27-.02.4-.03.12,0,.25-.02.36-.03.12-.01.25-.02.36-.04.11,0,.22-.02.32-.03.01,0,.03,0,.04,0,.25-.02.49-.05.73-.08.18-.02.36-.04.53-.06-.03-.1-.05-.2-.06-.3.01,0,.03,0,.05,0,.17-.02.34-.04.51-.06l-.51.04h-.05c-.02-.1-.03-.21-.03-.32,0-.04,0-.07,0-.11,0-1.7,1.34-3.1,3.03-3.17h0s0,0,.02,0c.04,0,.08,0,.12,0,.66,0,1.27.2,1.77.54,0,0,0,0,0,0,.65.44,1.13,1.12,1.31,1.91,0,.05.02.09.03.14t0,0s.01.1.02.15c0,0,.01,0,.02,0,5.83-1.52,11.25-4.06,16.05-7.43.19-.13.37-.26.56-.39,1.35-.98,2.66-2.02,3.9-3.13.26-.23.52-.46.77-.7,3.3-3.05,6.2-6.56,8.58-10.41.27-.43.52-.86.77-1.3,1.56-2.69,2.87-5.54,3.9-8.52.28-.8.54-1.6.77-2.42,1.24-4.25,1.93-8.73,1.98-13.37,0-.1,0-.21,0-.31,0-.21,0-.41,0-.62v-71.71h-47.83ZM116.87,132.46c.03-.1.07-.21.11-.32.05-.16.12-.32.2-.48.09-.19.2-.37.33-.54.06-.09.14-.18.21-.26.99-1.11,2.53-1.54,2.53-1.54,0,0,.15.32.28.83,0,.04.02.08.03.13,0,.01,0,.03.01.05.09.38.16.85.16,1.34,0,.5-.09,1.03-.32,1.52-.39.83-.91,1.5-1.45,1.92-.21.16-.41.29-.61.38-.37.16-.72.19-1.02.05-.28-.13-.48-.39-.59-.74h0c-.2-.59-.16-1.43.13-2.32ZM110.37,140.89c-.62,0-1.16.3-1.52.87-.51.21-1,.37-1.44.49-.28.08-.54.14-.76.18-.18-.57-.5-.9-.98-.91-.01-.1-.03-.2-.04-.31-.01-.1-.02-.21-.03-.31-.1-1.28-.04-3.09.77-4.65.1-.18.2-.36.31-.53.12-.09.23-.2.33-.33.07-.08.13-.17.18-.27.05-.07.08-.15.12-.24h0c.09-.11.18-.22.27-.33.25-.28.5-.54.76-.78.01-.01.03-.03.05-.04.24-.21.47-.41.71-.58.03-.02.05-.04.08-.06.78-.57,1.57-.93,2.27-1.04h.02c.2-.03.39-.05.57-.03.05,0,.1,0,.16.01.02,0,.04,0,.06.01,0,0,.01,0,.02,0,.26.04.51.14.72.29.42.3.69.77.81,1.37.29,1.45-.32,3.6-1.72,5.6-.45.65-1.03,1.17-1.64,1.59-.03,0-.05,0-.09,0ZM116.54,206.6s-.89-1.55-.41-2.91c.06-.18.13-.35.21-.5.05-.1.1-.2.15-.29.52-.89,1.23-1.41,1.79-1.21.71.25.89,1.55.41,2.91-.48,1.35-2.15,2.01-2.15,2.01ZM118.9,209.56c-.08.07-.17.13-.28.17-.11.05-.24.07-.36.07-.35,0-.65-.18-.82-.45-.06-.09-.1-.19-.13-.3-.02-.08-.03-.16-.03-.24,0-.54.44-.98.98-.98.05,0,.11,0,.16.01l.02.08.1-.05h0s.04.01.06.02c.1.04.19.09.26.15.23.18.37.46.37.77s-.13.56-.34.74ZM118.68,132.47l-.13.1-.06-.08s0,.09,0,.13l.19.02v-.16ZM107.51,131.69s-.01-.07-.02-.1h-.01l-.82-.08h-.04s-1.68-.16-1.68-.16l-.23-.02c-.02.05-.04.1-.06.15-.02.05-.04.11-.05.17-.03.08-.05.17-.06.26-.02.07-.03.15-.04.23,0,.05-.01.08-.02.13-.02.14-.03.29-.04.44,0,.05,0,.09,0,.13,0,.04,0,.08,0,.12l.08.06,2.09,1.62.15.11.41.31.05.04c.05-.07.08-.15.12-.24h0c.21-.5.33-1.15.33-1.93,0-.47-.05-.89-.14-1.26ZM111.46,131.95h0l-2.03-.19h-.17s-.61-.07-.61-.07l-.17-.02c-.1.39-.16.84-.16,1.35,0,.26.02.51.05.74.01-.01.03-.03.05-.04.24-.21.47-.41.71-.58.03-.02.05-.04.08-.06.78-.57,1.57-.93,2.27-1.04h.02c.2-.03.39-.05.57-.03l-.59-.06ZM118.54,132.56l-.06-.08s0,.09,0,.13l.19.02v-.16s-.12.1-.12.1ZM118.54,132.56l-.06-.08s0,.09,0,.13l.19.02v-.16s-.12.1-.12.1ZM107.51,131.69s-.01-.07-.02-.1h-.01l-.82-.08h-.04s-1.68-.16-1.68-.16l-.23-.02c-.02.05-.04.1-.06.15-.02.05-.04.11-.05.17-.03.08-.05.17-.06.26-.02.07-.03.15-.04.23,0,.05-.01.08-.02.13-.02.14-.03.29-.04.44,0,.05,0,.09,0,.13,0,.04,0,.08,0,.12l.08.06,2.09,1.62.15.11.41.31.05.04c.05-.07.08-.15.12-.24h0c.21-.5.33-1.15.33-1.93,0-.47-.05-.89-.14-1.26ZM111.46,131.95h0l-2.03-.19h-.17s-.61-.07-.61-.07l-.17-.02c-.1.39-.16.84-.16,1.35,0,.26.02.51.05.74.01-.01.03-.03.05-.04.24-.21.47-.41.71-.58.03-.02.05-.04.08-.06.78-.57,1.57-.93,2.27-1.04h.02c.2-.03.39-.05.57-.03l-.59-.06ZM118.54,132.56l-.06-.08s0,.09,0,.13l.19.02v-.16s-.12.1-.12.1ZM118.54,132.56l-.06-.08s0,.09,0,.13l.19.02v-.16s-.12.1-.12.1ZM107.51,131.69s-.01-.07-.02-.1h-.01l-.82-.08h-.04s-1.68-.16-1.68-.16l-.23-.02c-.02.05-.04.1-.06.15-.02.05-.04.11-.05.17-.03.08-.05.17-.06.26-.02.07-.03.15-.04.23,0,.05-.01.08-.02.13-.02.14-.03.29-.04.44,0,.05,0,.09,0,.13,0,.04,0,.08,0,.12l.08.06,2.09,1.62.15.11.41.31.05.04c.05-.07.08-.15.12-.24h0c.21-.5.33-1.15.33-1.93,0-.47-.05-.89-.14-1.26ZM111.46,131.95h0l-2.03-.19h-.17s-.61-.07-.61-.07l-.17-.02c-.1.39-.16.84-.16,1.35,0,.26.02.51.05.74.01-.01.03-.03.05-.04.24-.21.47-.41.71-.58.03-.02.05-.04.08-.06.78-.57,1.57-.93,2.27-1.04h.02c.2-.03.39-.05.57-.03l-.59-.06ZM118.54,132.56l-.06-.08s0,.09,0,.13l.19.02v-.16s-.12.1-.12.1ZM118.54,132.56l-.06-.08s0,.09,0,.13l.19.02v-.16s-.12.1-.12.1ZM107.51,131.69s-.01-.07-.02-.1h-.01l-.82-.08h-.04s-1.68-.16-1.68-.16l-.23-.02c-.02.05-.04.1-.06.15-.02.05-.04.11-.05.17-.03.08-.05.17-.06.26-.02.07-.03.15-.04.23,0,.05-.01.08-.02.13-.02.14-.03.29-.04.44,0,.05,0,.09,0,.13,0,.04,0,.08,0,.12l.08.06,2.09,1.62.15.11.41.31.05.04c.05-.07.08-.15.12-.24h0c.21-.5.33-1.15.33-1.93,0-.47-.05-.89-.14-1.26ZM111.46,131.95h0l-2.03-.19h-.17s-.61-.07-.61-.07l-.17-.02c-.1.39-.16.84-.16,1.35,0,.26.02.51.05.74.01-.01.03-.03.05-.04.24-.21.47-.41.71-.58.03-.02.05-.04.08-.06.78-.57,1.57-.93,2.27-1.04h.02c.2-.03.39-.05.57-.03l-.59-.06ZM118.54,132.56l-.06-.08s0,.09,0,.13l.19.02v-.16s-.12.1-.12.1ZM118.54,132.56l-.06-.08s0,.09,0,.13l.19.02v-.16s-.12.1-.12.1ZM107.51,131.69s-.01-.07-.02-.1h-.01l-.82-.08h-.04s-1.68-.16-1.68-.16l-.23-.02c-.02.05-.04.1-.06.15-.02.05-.04.11-.05.17-.03.08-.05.17-.06.26-.02.07-.03.15-.04.23,0,.05-.01.08-.02.13-.02.14-.03.29-.04.44,0,.05,0,.09,0,.13,0,.04,0,.08,0,.12l.08.06,2.09,1.62.15.11.41.31.05.04c.05-.07.08-.15.12-.24h0c.21-.5.33-1.15.33-1.93,0-.47-.05-.89-.14-1.26ZM111.46,131.95h0l-2.03-.19h-.17s-.61-.07-.61-.07l-.17-.02c-.1.39-.16.84-.16,1.35,0,.26.02.51.05.74.01-.01.03-.03.05-.04.24-.21.47-.41.71-.58.03-.02.05-.04.08-.06.78-.57,1.57-.93,2.27-1.04h.02c.2-.03.39-.05.57-.03l-.59-.06ZM107.51,131.69s-.01-.07-.02-.1h-.01l-.82-.08h-.04s-1.68-.16-1.68-.16l-.23-.02c-.02.05-.04.1-.06.15-.02.05-.04.11-.05.17-.03.08-.05.17-.06.26-.02.07-.03.15-.04.23,0,.05-.01.08-.02.13-.02.14-.03.29-.04.44,0,.05,0,.09,0,.13,0,.04,0,.08,0,.12l.08.06,2.09,1.62.15.11.41.31.05.04c.05-.07.08-.15.12-.24h0c.21-.5.33-1.15.33-1.93,0-.47-.05-.89-.14-1.26ZM111.46,131.95h0l-2.03-.19h-.17s-.61-.07-.61-.07l-.17-.02c-.1.39-.16.84-.16,1.35,0,.26.02.51.05.74.01-.01.03-.03.05-.04.24-.21.47-.41.71-.58.03-.02.05-.04.08-.06.78-.57,1.57-.93,2.27-1.04h.02c.2-.03.39-.05.57-.03l-.59-.06Z"/><path class="cls-3" d="M147.81,152.75c-.7,0-1.21.86-1.21,2.47s.47,2.42,1.2,2.42c.82,0,1.21-.96,1.21-2.47s-.37-2.42-1.2-2.42Z"/><path class="cls-3" d="M129.11,163.69c-.7,0-1.21.86-1.21,2.47s.47,2.42,1.2,2.42c.82,0,1.21-.96,1.21-2.47s-.37-2.42-1.2-2.42Z"/><path class="cls-3" d="M147.81,141.81c-.7,0-1.21.86-1.21,2.47s.47,2.42,1.2,2.42c.82,0,1.21-.96,1.21-2.47s-.37-2.42-1.2-2.42Z"/><path class="cls-3" d="M147.81,130.87c-.7,0-1.21.86-1.21,2.47s.47,2.42,1.2,2.42c.82,0,1.21-.96,1.21-2.47s-.37-2.42-1.2-2.42Z"/><path class="cls-3" d="M129.11,119.93c-.7,0-1.21.86-1.21,2.47s.47,2.42,1.2,2.42c.82,0,1.21-.96,1.21-2.47s-.37-2.42-1.2-2.42Z"/><path class="cls-3" d="M147.81,174.63c-.7,0-1.21.86-1.21,2.47s.47,2.42,1.2,2.42c.82,0,1.21-.96,1.21-2.47s-.37-2.42-1.2-2.42Z"/><path class="cls-3" d="M147.81,119.93c-.7,0-1.21.86-1.21,2.47s.47,2.42,1.2,2.42c.82,0,1.21-.96,1.21-2.47s-.37-2.42-1.2-2.42Z"/><path class="cls-3" d="M129.11,152.75c-.7,0-1.21.86-1.21,2.47s.47,2.42,1.2,2.42c.82,0,1.21-.96,1.21-2.47s-.37-2.42-1.2-2.42Z"/><path class="cls-3" d="M152.49,163.69c-.7,0-1.21.86-1.21,2.47s.47,2.42,1.2,2.42c.82,0,1.21-.96,1.21-2.47s-.37-2.42-1.2-2.42Z"/><path class="cls-3" d="M105.72,130.87c-.7,0-1.21.86-1.21,2.47s.47,2.42,1.2,2.42c.82,0,1.21-.96,1.21-2.47s-.37-2.42-1.2-2.42Z"/><path class="cls-3" d="M111.54,132.35c-.72.11-1.54.49-2.35,1.1v-.1c0-.51.05-.93.14-1.29.03-.11.06-.22.1-.32.21-.57.56-.86.97-.86.53,0,.87.39,1.05,1.05.03.1.05.22.08.34,0,.03,0,.06.01.09Z"/><path class="cls-3" d="M106.92,144.23c0,1.51-.39,2.47-1.21,2.47-.73,0-1.2-.88-1.2-2.42s.51-2.47,1.21-2.47h.03c.47.01.79.35.98.91.13.4.2.91.2,1.5Z"/><path class="cls-3" d="M147.81,185.57c-.7,0-1.21.86-1.21,2.47s.47,2.42,1.2,2.42c.82,0,1.21-.96,1.21-2.47s-.37-2.42-1.2-2.42Z"/><path class="cls-3" d="M152.49,174.63c-.7,0-1.21.86-1.21,2.47s.47,2.42,1.2,2.42c.82,0,1.21-.96,1.21-2.47s-.37-2.42-1.2-2.42Z"/><path class="cls-3" d="M119.75,119.93c-.7,0-1.21.86-1.21,2.47s.47,2.42,1.2,2.42c.82,0,1.21-.96,1.21-2.47s-.37-2.42-1.2-2.42Z"/><path class="cls-3" d="M118.62,132.87l.13-.1v.16s-.2-.02-.2-.02c0-.05,0-.09,0-.13l.06.08Z"/><path class="cls-3" d="M120.96,133.29c0,1.51-.39,2.47-1.21,2.47-.27,0-.51-.12-.7-.35.53-.42,1.06-1.09,1.45-1.92.23-.49.32-1.02.32-1.52.1.36.14.82.14,1.32Z"/><path class="cls-3" d="M152.49,130.87c-.7,0-1.21.86-1.21,2.47s.47,2.42,1.2,2.42c.82,0,1.21-.96,1.21-2.47s-.37-2.42-1.2-2.42Z"/><path class="cls-3" d="M147.81,98.05c-.7,0-1.21.86-1.21,2.47s.47,2.42,1.2,2.42c.82,0,1.21-.96,1.21-2.47s-.37-2.42-1.2-2.42Z"/><path class="cls-3" d="M138.46,141.81c-.7,0-1.21.86-1.21,2.47s.47,2.42,1.2,2.42c.82,0,1.21-.96,1.21-2.47s-.37-2.42-1.2-2.42Z"/><path class="cls-3" d="M133.78,152.75c-.7,0-1.21.86-1.21,2.47s.47,2.42,1.2,2.42c.82,0,1.21-.96,1.21-2.47s-.37-2.42-1.2-2.42Z"/><path class="cls-3" d="M133.78,119.93c-.7,0-1.21.86-1.21,2.47s.47,2.42,1.2,2.42c.82,0,1.21-.96,1.21-2.47s-.37-2.42-1.2-2.42Z"/><path class="cls-3" d="M138.46,130.87c-.7,0-1.21.86-1.21,2.47s.47,2.42,1.2,2.42c.82,0,1.21-.96,1.21-2.47s-.37-2.42-1.2-2.42Z"/><path class="cls-3" d="M138.46,174.63c-.7,0-1.21.86-1.21,2.47s.47,2.42,1.2,2.42c.82,0,1.21-.96,1.21-2.47s-.37-2.42-1.2-2.42Z"/><path class="cls-3" d="M138.46,196.51c-.7,0-1.21.86-1.21,2.47s.47,2.42,1.2,2.42c.82,0,1.21-.96,1.21-2.47s-.37-2.42-1.2-2.42Z"/><path class="cls-3" d="M138.46,152.75c-.7,0-1.21.86-1.21,2.47s.47,2.42,1.2,2.42c.82,0,1.21-.96,1.21-2.47s-.37-2.42-1.2-2.42Z"/><path class="cls-3" d="M133.78,174.63c-.7,0-1.21.86-1.21,2.47s.47,2.42,1.2,2.42c.82,0,1.21-.96,1.21-2.47s-.37-2.42-1.2-2.42Z"/><path class="cls-3" d="M143.14,119.93c-.7,0-1.21.86-1.21,2.47s.47,2.42,1.2,2.42c.82,0,1.21-.96,1.21-2.47s-.37-2.42-1.2-2.42Z"/><path class="cls-3" d="M129.11,98.05c-.7,0-1.21.86-1.21,2.47s.47,2.42,1.2,2.42c.82,0,1.21-.96,1.21-2.47s-.37-2.42-1.2-2.42Z"/><path class="cls-3" d="M129.11,196.51c-.7,0-1.21.86-1.21,2.47s.47,2.42,1.2,2.42c.82,0,1.21-.96,1.21-2.47s-.37-2.42-1.2-2.42Z"/><path class="cls-3" d="M143.14,141.81c-.7,0-1.21.86-1.21,2.47s.47,2.42,1.2,2.42c.82,0,1.21-.96,1.21-2.47s-.37-2.42-1.2-2.42Z"/><path class="cls-3" d="M143.14,98.05c-.7,0-1.21.86-1.21,2.47s.47,2.42,1.2,2.42c.82,0,1.21-.96,1.21-2.47s-.37-2.42-1.2-2.42Z"/><path class="cls-3" d="M143.14,174.63c-.7,0-1.21.86-1.21,2.47s.47,2.42,1.2,2.42c.82,0,1.21-.96,1.21-2.47s-.37-2.42-1.2-2.42Z"/><path class="cls-3" d="M143.14,163.69c-.7,0-1.21.86-1.21,2.47s.47,2.42,1.2,2.42c.82,0,1.21-.96,1.21-2.47s-.37-2.42-1.2-2.42Z"/><path class="cls-3" d="M138.46,185.57c-.7,0-1.21.86-1.21,2.47s.47,2.42,1.2,2.42c.82,0,1.21-.96,1.21-2.47s-.37-2.42-1.2-2.42Z"/><path class="cls-3" d="M138.46,108.99c-.7,0-1.21.86-1.21,2.47s.47,2.42,1.2,2.42c.82,0,1.21-.96,1.21-2.47s-.37-2.42-1.2-2.42Z"/><path class="cls-3" d="M143.14,185.57c-.7,0-1.21.86-1.21,2.47s.47,2.42,1.2,2.42c.82,0,1.21-.96,1.21-2.47s-.37-2.42-1.2-2.42Z"/><path class="cls-3" d="M117.76,89.98c0-.13-.02-.26-.02-.41,0-.19.01-.36.03-.53h-1.1l.58.5.51.44Z"/><path class="cls-3" d="M161.84,141.81c-.7,0-1.21.86-1.21,2.47s.47,2.42,1.2,2.42c.82,0,1.21-.96,1.21-2.47s-.37-2.42-1.2-2.42Z"/><path class="cls-3" d="M157.17,130.87c-.7,0-1.21.86-1.21,2.47s.47,2.42,1.2,2.42c.82,0,1.21-.96,1.21-2.47s-.37-2.42-1.2-2.42Z"/><path class="cls-3" d="M129.1,190.46c.82,0,1.21-.96,1.21-2.47,0-.66-.08-1.21-.24-1.63-.53,1.09-1.2,2.12-2,3.06.2.67.56,1.04,1.03,1.04Z"/><path class="cls-3" d="M116.28,122.35c0,.15,0,.31-.01.45-.72-.22-1.53-.37-2.4-.42,0-.87.16-1.52.41-1.93.14-.23.32-.39.52-.46.09-.04.19-.05.29-.05.83,0,1.2.96,1.2,2.42Z"/><path class="cls-3" d="M118.54,89.58c0,.45.04.84.12,1.17l1.39,1.19c.61-.22.91-1.11.91-2.42,0-.17,0-.33-.02-.48h-2.38c-.01.17-.02.35-.02.54Z"/><path class="cls-3" d="M91.69,141.81c-.15,0-.28.05-.41.12.08.16.21.32.4.46l1.15.87c-.14-.9-.51-1.46-1.14-1.46Z"/><path class="cls-3" d="M157.17,119.93c-.7,0-1.21.86-1.21,2.47s.47,2.42,1.2,2.42c.82,0,1.21-.96,1.21-2.47s-.37-2.42-1.2-2.42Z"/><path class="cls-3" d="M99.83,133.34c0,1.54.47,2.42,1.2,2.42.82,0,1.21-.96,1.21-2.47,0-.91-.14-1.62-.45-2.03l-1.95,1.74c0,.11-.01.22-.01.34Z"/><path class="cls-3" d="M119.74,157.64c.77,0,1.16-.85,1.2-2.2l-1.91,1.84c.19.24.43.37.71.37Z"/><path class="cls-3" d="M115.07,201.4c.8,0,1.19-.92,1.21-2.37l-2.12,1.66c.21.46.52.71.91.71Z"/><path class="cls-3" d="M132.57,89.58c0,1.54.47,2.42,1.2,2.42.82,0,1.21-.96,1.21-2.47,0-.17,0-.33-.02-.48h-2.38c-.01.17-.02.35-.02.54Z"/><path class="cls-3" d="M125.18,167.87s.08.07.13.1c.22-.43.33-1.06.33-1.86,0-1.46-.37-2.42-1.2-2.42-.7,0-1.21.86-1.21,2.47,0,.09,0,.17.01.25l1.19.9.76.55Z"/><path class="cls-3" d="M162.43,89.04v3.47h-.77v-3.47h-2.49c0,.1,0,.2,0,.31,0,.05,0,.09,0,.14,0,2.01-.75,3.13-2.06,3.13-1.16,0-1.94-1.08-1.96-3.05,0-.08,0-.15,0-.22,0-.1,0-.21.02-.31h-2.11v3.47h-.77v-3.47h-3.9v3.47h-.77v-3.47h-3.9v3.47h-.77v-3.47h-3.9v3.47h-.77v-3.47h-2.49c0,.1,0,.2,0,.31,0,.05,0,.09,0,.14,0,2.01-.75,3.13-2.06,3.13-1.16,0-1.94-1.08-1.96-3.05,0-.08,0-.15,0-.22,0-.1,0-.21.02-.31h-2.11v3.47h-.77v-3.47h-3.9v3.47h-.78v-3.47h-2.49c0,.1,0,.2,0,.31,0,.05,0,.09,0,.14,0,1.5-.41,2.5-1.17,2.91,1.64,1.43,2.92,3.18,3.78,5.13h.64v1.75c.39,1.3.6,2.65.62,4.04v.31c-.02,1.64-.32,3.25-.87,4.77.04,0,.07.01.1.02,1.01.21,1.57,1.27,1.57,2.95,0,2.01-.75,3.13-2.06,3.13-.88,0-1.53-.63-1.81-1.78-.02-.08-.04-.16-.05-.25-.53.68-1.13,1.33-1.79,1.91l-5.53,4.93c.1,0,.21.01.3.04,1.01.2,1.58,1.27,1.58,2.96,0,.18,0,.35-.02.51,0,.09-.02.17-.03.26h0c.3.12.57.26.81.41-.02-.09-.04-.18-.05-.28-.04-.25-.05-.53-.06-.82,0-1.99.86-3.08,2.06-3.08s1.96,1.11,1.96,3c0,2.01-.75,3.13-2.06,3.13-.14,0-.26-.01-.39-.05,0,.07.01.13.01.2,0,1.24-1.34,2.32-3.31,2.86-.04,0-.08.02-.12.03-.07.02-.15.04-.22.05-.04,0-.08.02-.12.03-.76.17-1.59.26-2.46.26-1.6,0-3.06-.7-4.16-1.45-.1-.06-.19-.13-.28-.2,0,0-.01,0-.02-.01-.1-.07-.19-.14-.27-.2-.28-.21-.52-.42-.72-.6-.06-.06-.11-.11-.17-.16l-3.45,3.08-.98.87h0s-.05.05-.05.05l-.06.05-.05.05-.51.46h-.01s.05.07.07.1c.03.03.05.06.07.09.03.04.06.08.08.13,0,0,.01.02.02.04.06.1.11.2.16.31.03.06.05.13.08.2,0,.03.02.06.03.1.02.06.04.13.05.2.01.04.02.08.03.11.01.06.03.13.04.2.01.09.03.18.04.27.03.23.04.47.04.73,0,2.01-.75,3.13-2.06,3.13-1.02,0-1.74-.85-1.91-2.39,0-.1-.02-.19-.02-.29l-.77.69c-.03.14-.05.26-.09.39-.29,1-.9,1.56-1.79,1.59-.03,0-.06,0-.09,0-.08,0-.15-.02-.23-.03l-.78.69-3.73,3.32c-.34.31-.43.66-.44.93.02,0,.03,0,.05-.01.17-.06.36-.1.55-.1,1.19,0,1.89,1.01,1.96,2.74l.67.51c0-.06,0-.11,0-.16,0-1.99.86-3.08,2.06-3.08s1.96,1.11,1.96,3c0,1.26-.29,2.17-.83,2.67l7,5.32h0s.05.02.07,0l5.17-4.97s-.04-.01-.05-.02c-.81-.33-1.34-1.33-1.35-2.91,0-.95.2-1.7.54-2.22-.51.21-1,.37-1.44.49.16.45.24,1,.24,1.65,0,2.01-.75,3.13-2.06,3.13-1.16,0-1.94-1.08-1.96-3.05,0-1.92.8-3,1.93-3.07.02,0,.03,0,.05,0-.11-1.43-.02-3.51,1.08-5.17-.12.09-.25.17-.39.22-.21.09-.46.13-.72.13-1.16,0-1.94-1.08-1.96-3.05,0-.09,0-.18,0-.27,0-.08,0-.16.01-.24,0-.05,0-.1.02-.15,0-.07.02-.15.03-.22.05-.34.13-.64.24-.9.04-.1.09-.2.13-.29,0,0,.01-.02.02-.03.06-.1.12-.19.19-.28.36-.46.85-.71,1.41-.71.7,0,1.23.35,1.56.98.05.1.1.2.14.31,0,.01,0,.02.01.04.01.03.02.07.04.1.02.06.04.13.05.2.1.39.16.85.16,1.36,0,.48-.05.92-.13,1.29-.05.23-.11.44-.2.63.33-.41.68-.77,1.03-1.1-.01-.11-.02-.23-.03-.35,0-.13,0-.26-.01-.39,0-.51.05-.97.16-1.35.03-.1.06-.2.1-.29,0,0,0-.02.01-.03.04-.1.08-.2.12-.29.36-.73.95-1.12,1.67-1.12.85,0,1.45.52,1.75,1.44.03.1.06.2.08.31,0,0,0,.02,0,.03,0,0,0,0,0,.01.02.09.04.19.05.29h0c.27.05.52.15.75.31.35.25.59.61.73,1.06.45,1.44-.15,3.76-1.65,5.91-.45.65-1.03,1.17-1.64,1.59,1.19.05,1.87,1.15,1.87,2.99,0,.15,0,.3-.01.44,0,.03,0,.05,0,.08l.66-.63.71-.68,1.13-1.09v-.26h-.02l-1.03.56-.16-.61,1.29-.69h.68v.26l.9-.86h0l.29-.28,2.56-2.47.14-.14,2.92-2.81s.06-.02.08,0l2.17,2.26c1.91,1.99,2.88,4.53,2.92,7.07,0,.1,0,.21,0,.31-.03,2.71-1.1,5.39-3.2,7.42l-.08.08s.07,0,.11,0c.07,0,.13,0,.19.01h0c1.13.11,1.76,1.2,1.76,2.99,0,2.01-.75,3.13-2.06,3.13-1.16,0-1.94-1.08-1.96-3.05,0-.35.03-.67.08-.97.02-.13.05-.26.08-.38l-.83.81c0,.1,0,.19,0,.29,0,.05,0,.11,0,.17,0,2.01-.75,3.13-2.06,3.13-.38,0-.72-.12-1-.35-.05-.04-.11-.09-.16-.15l-2.89,2.79s-.03.07,0,.09l.12.1,3.49,2.65.4-.21h.68v1.04l2.1,1.6c.1-1.76.91-2.74,2.04-2.74,1.25,0,1.96,1.11,1.96,3,0,1.02-.19,1.81-.55,2.34,3.5,2.84,5.65,7.07,5.65,11.57v.15c0,.15,0,.31,0,.46-.07,1.72-.45,3.39-1.08,4.93.03.04.06.07.09.11.38.52.59,1.3.59,2.31,0,2.01-.75,3.13-2.06,3.13-.6,0-1.09-.3-1.43-.85-.04-.06-.08-.13-.11-.2-.49.52-1.01.99-1.58,1.44l-5.77,4.52h.18v5.93h-.77v-5.18h-.02l-1.03.56h0s-1.45,1.12-1.45,1.12c0,.1.01.2.01.3,0,.06,0,.12,0,.18,0,2.01-.75,3.13-2.06,3.13-.53,0-.98-.23-1.31-.67-.05-.06-.1-.13-.14-.2l-.51.4-.29.23-1.21.95-.26.2-5.06,3.97c.09.02.18.06.26.1.78.36,1.22,1.37,1.22,2.84,0,.41-.03.79-.1,1.13h2.58v-3.28h-.02l-1.03.56-.16-.61,1.29-.69h.68v4.03h4.68c.24-.02.48-.03.72-.04.04,0,.07,0,.11,0,.16,0,.31,0,.46-.02.09,0,.18,0,.27-.01.12,0,.24,0,.36-.02.12,0,.24-.01.36-.02.14,0,.27-.02.4-.03.18-.01.36-.03.53-.05.09,0,.18-.01.27-.02.12,0,.24-.02.36-.03.02,0,.04,0,.06,0l.77-.08c.18-.02.55-.09.55-.09-.02-.09,6.22-1.24,6.23-1.19,0,0,0,.01,0,.02,5.86-1.52,11.31-4.07,16.13-7.45h-.3v-5.18h-.02l-1.03.56-.15-.61,1.29-.69h.68v5.59c1.35-.98,2.66-2.02,3.9-3.12v-1.72h-.02l-1.03.56-.15-.61,1.29-.69h.68v1.77c3.3-3.04,6.2-6.52,8.58-10.35v-1.61h-.02l-1.03.56-.15-.61,1.29-.69h.68v1.07c1.55-2.66,2.86-5.48,3.9-8.43v-2.83h-.02l-1.03.56-.16-.61,1.29-.69h.68v1.19c1.26-4.23,1.98-8.7,2.06-13.32,0-.1,0-.21,0-.31,0-.21,0-.41,0-.62v-72.02h-2.07ZM100.99,147.32c-1.16,0-1.94-1.08-1.96-3.05,0-1.99.86-3.08,2.06-3.08s1.96,1.11,1.96,3c0,2.01-.75,3.13-2.06,3.13ZM124.33,119.41h.68v5.93h-.78v-5.18h-.02l-1.03.56-.16-.61,1.29-.69ZM120.58,130.32s.02.08.04.13c.73.4,1.14,1.38,1.14,2.8,0,2.01-.75,3.13-2.06,3.13-.5,0-.93-.2-1.26-.59-.37.16-.72.19-1.02.05-.36-.17-.58-.54-.67-1.04h0c-.1-.56-.04-1.27.21-2.02.03-.1.07-.21.11-.32.05-.16.12-.32.2-.48.09-.19.2-.37.33-.54.06-.09.14-.18.21-.26.99-1.11,2.53-1.54,2.53-1.54,0,0,.11.25.23.65,0,.01,0,.03.01.05ZM114.88,136.28v-5.18h-.02l-1.03.56-.16-.61,1.29-.69h.68v5.93h-.78ZM125.01,136.28h-.78v-5.18h-.02l-1.03.56-.16-.61,1.29-.69h.68v5.93ZM129.05,169.2c-1.16,0-1.94-1.08-1.96-3.05,0-1.99.86-3.08,2.06-3.08s1.96,1.11,1.96,3c0,2.01-.75,3.13-2.06,3.13ZM129.05,158.26c-1.16,0-1.94-1.08-1.96-3.05,0-1.99.86-3.08,2.06-3.08s1.96,1.11,1.96,3c0,2.01-.75,3.13-2.06,3.13ZM128.9,131.1l-1.03.56-.15-.61,1.29-.69h.68v5.93h-.77v-5.18h-.02ZM129.01,141.29h.68v5.93h-.77v-5.18h-.02l-1.03.56-.15-.61,1.29-.69ZM129.05,125.44c-1.16,0-1.94-1.08-1.96-3.05,0-1.99.86-3.08,2.06-3.08s1.96,1.11,1.96,3c0,2.01-.75,3.13-2.06,3.13ZM128.9,109.22l-1.03.56-.15-.61,1.29-.69h.68v5.93h-.77v-5.18h-.02ZM129.05,103.56c-1.16,0-1.94-1.08-1.96-3.05,0-1.99.86-3.08,2.06-3.08s1.96,1.11,1.96,3c0,2.01-.75,3.13-2.06,3.13ZM124.33,195.99h.68v5.93h-.78v-5.18h-.02l-1.03.56-.16-.61,1.29-.69ZM161.89,97.43c1.25,0,1.96,1.11,1.96,3,0,2.01-.75,3.13-2.06,3.13-1.16,0-1.94-1.08-1.96-3.05,0-1.99.86-3.08,2.06-3.08ZM161.89,108.37c1.25,0,1.96,1.11,1.96,3,0,2.01-.75,3.13-2.06,3.13-1.16,0-1.94-1.08-1.96-3.05,0-1.99.86-3.08,2.06-3.08ZM161.89,119.31c1.25,0,1.96,1.11,1.96,3,0,2.01-.75,3.13-2.06,3.13-1.16,0-1.94-1.08-1.96-3.05,0-1.99.86-3.08,2.06-3.08ZM161.64,131.1l-1.03.56-.16-.61,1.29-.69h.68v5.93h-.77v-5.18h-.02ZM157.07,97.53h.68v5.93h-.77v-5.18h-.02l-1.03.56-.15-.61,1.29-.69ZM157.07,108.47h.68v5.93h-.77v-5.18h-.02l-1.03.56-.15-.61,1.29-.69ZM157.21,119.31c1.25,0,1.96,1.11,1.96,3,0,2.01-.75,3.13-2.06,3.13-1.16,0-1.94-1.08-1.96-3.05,0-1.99.86-3.08,2.06-3.08ZM157.21,130.25c1.25,0,1.96,1.11,1.96,3,0,2.01-.75,3.13-2.06,3.13-1.16,0-1.94-1.08-1.96-3.05,0-1.99.86-3.08,2.06-3.08ZM156.96,142.04l-1.03.56-.15-.61,1.29-.69h.68v5.93h-.77v-5.18h-.02ZM157.21,152.13c1.25,0,1.96,1.11,1.96,3,0,2.01-.75,3.13-2.06,3.13-1.16,0-1.94-1.08-1.96-3.05,0-1.99.86-3.08,2.06-3.08ZM157.21,163.07c1.25,0,1.96,1.11,1.96,3,0,2.01-.75,3.13-2.06,3.13-1.16,0-1.94-1.08-1.96-3.05,0-1.99.86-3.08,2.06-3.08ZM152.39,97.53h.68v5.93h-.77v-5.18h-.02l-1.03.56-.15-.61,1.29-.69ZM152.54,108.37c1.25,0,1.96,1.11,1.96,3,0,2.01-.75,3.13-2.06,3.13-1.16,0-1.94-1.08-1.96-3.05,0-1.99.86-3.08,2.06-3.08ZM152.54,119.31c1.25,0,1.96,1.11,1.96,3,0,2.01-.75,3.13-2.06,3.13-1.16,0-1.94-1.08-1.96-3.05,0-1.99.86-3.08,2.06-3.08ZM152.54,130.25c1.25,0,1.96,1.11,1.96,3,0,2.01-.75,3.13-2.06,3.13-1.16,0-1.94-1.08-1.96-3.05,0-1.99.86-3.08,2.06-3.08ZM152.28,152.98l-1.03.56-.15-.61,1.29-.69h.68v5.93h-.77v-5.18h-.02ZM152.3,147.22v-5.18h-.02l-1.03.56-.15-.61,1.29-.69h.68v5.93h-.77ZM152.54,163.07c1.25,0,1.96,1.11,1.96,3,0,2.01-.75,3.13-2.06,3.13-1.16,0-1.94-1.08-1.96-3.05,0-1.99.86-3.08,2.06-3.08ZM152.54,174.01c1.25,0,1.96,1.11,1.96,3,0,2.01-.75,3.13-2.06,3.13-1.16,0-1.94-1.08-1.96-3.05,0-1.99.86-3.08,2.06-3.08ZM152.28,185.8l-1.03.56-.15-.61,1.29-.69h.68v5.93h-.77v-5.18h-.02ZM147.86,97.43c1.25,0,1.96,1.11,1.96,3,0,2.01-.75,3.13-2.06,3.13-1.16,0-1.94-1.08-1.96-3.05,0-1.99.86-3.08,2.06-3.08ZM147.61,109.22l-1.03.56-.15-.61,1.29-.69h.68v5.93h-.77v-5.18h-.02ZM147.86,119.31c1.25,0,1.96,1.11,1.96,3,0,2.01-.75,3.13-2.06,3.13-1.16,0-1.94-1.08-1.96-3.05,0-1.99.86-3.08,2.06-3.08ZM147.86,130.25c1.25,0,1.96,1.11,1.96,3,0,2.01-.75,3.13-2.06,3.13-1.16,0-1.94-1.08-1.96-3.05,0-1.99.86-3.08,2.06-3.08ZM147.86,141.19c1.25,0,1.96,1.11,1.96,3,0,2.01-.75,3.13-2.06,3.13-1.16,0-1.94-1.08-1.96-3.05,0-1.99.86-3.08,2.06-3.08ZM147.86,152.13c1.25,0,1.96,1.11,1.96,3,0,2.01-.75,3.13-2.06,3.13-1.16,0-1.94-1.08-1.96-3.05,0-1.99.86-3.08,2.06-3.08ZM147.61,163.92l-1.03.56-.15-.61,1.29-.69h.68v5.93h-.77v-5.18h-.02ZM147.86,174.01c1.25,0,1.96,1.11,1.96,3,0,2.01-.75,3.13-2.06,3.13-1.16,0-1.94-1.08-1.96-3.05,0-1.99.86-3.08,2.06-3.08ZM143.18,97.43c1.25,0,1.96,1.11,1.96,3,0,2.01-.75,3.13-2.06,3.13-1.16,0-1.94-1.08-1.96-3.05,0-1.99.86-3.08,2.06-3.08ZM142.93,109.22l-1.03.56-.15-.61,1.29-.69h.68v5.93h-.77v-5.18h-.02ZM143.18,119.31c1.25,0,1.96,1.11,1.96,3,0,2.01-.75,3.13-2.06,3.13-1.16,0-1.94-1.08-1.96-3.05,0-1.99.86-3.08,2.06-3.08ZM142.93,131.1l-1.03.56-.15-.61,1.29-.69h.68v5.93h-.77v-5.18h-.02ZM143.18,141.19c1.25,0,1.96,1.11,1.96,3,0,2.01-.75,3.13-2.06,3.13-1.16,0-1.94-1.08-1.96-3.05,0-1.99.86-3.08,2.06-3.08ZM142.93,152.98l-1.03.56-.15-.61,1.29-.69h.68v5.93h-.77v-5.18h-.02ZM143.18,163.07c1.25,0,1.96,1.11,1.96,3,0,2.01-.75,3.13-2.06,3.13-1.16,0-1.94-1.08-1.96-3.05,0-1.99.86-3.08,2.06-3.08ZM143.18,174.01c1.25,0,1.96,1.11,1.96,3,0,2.01-.75,3.13-2.06,3.13-1.16,0-1.94-1.08-1.96-3.05,0-1.99.86-3.08,2.06-3.08ZM138.36,97.53h.68v5.93h-.77v-5.18h-.02l-1.03.56-.15-.61,1.29-.69ZM138.51,108.37c1.25,0,1.96,1.11,1.96,3,0,2.01-.75,3.13-2.06,3.13-1.16,0-1.94-1.08-1.96-3.05,0-1.99.86-3.08,2.06-3.08ZM138.25,120.16l-1.03.56-.15-.61,1.29-.69h.68v5.93h-.77v-5.18h-.02ZM138.51,130.25c1.25,0,1.96,1.11,1.96,3,0,2.01-.75,3.13-2.06,3.13-1.16,0-1.94-1.08-1.96-3.05,0-1.99.86-3.08,2.06-3.08ZM138.51,141.19c1.25,0,1.96,1.11,1.96,3,0,2.01-.75,3.13-2.06,3.13-1.16,0-1.94-1.08-1.96-3.05,0-1.99.86-3.08,2.06-3.08ZM138.51,152.13c1.25,0,1.96,1.11,1.96,3,0,2.01-.75,3.13-2.06,3.13-1.16,0-1.94-1.08-1.96-3.05,0-1.99.86-3.08,2.06-3.08ZM138.25,163.92l-1.03.56-.15-.61,1.29-.69h.68v5.93h-.77v-5.18h-.02ZM138.51,174.01c1.25,0,1.96,1.11,1.96,3,0,2.01-.75,3.13-2.06,3.13-1.16,0-1.94-1.08-1.96-3.05,0-1.99.86-3.08,2.06-3.08ZM138.51,184.95c1.25,0,1.96,1.11,1.96,3,0,2.01-.75,3.13-2.06,3.13-1.16,0-1.94-1.08-1.96-3.05,0-1.99.86-3.08,2.06-3.08ZM138.51,195.89c1.25,0,1.96,1.11,1.96,3,0,2.01-.75,3.13-2.06,3.13-1.16,0-1.94-1.08-1.96-3.05,0-1.99.86-3.08,2.06-3.08ZM133.68,97.53h.68v5.93h-.78v-5.18h-.02l-1.03.56-.16-.61,1.29-.69ZM133.68,108.47h.68v5.93h-.78v-5.18h-.02l-1.03.56-.16-.61,1.29-.69ZM133.83,119.31c1.25,0,1.96,1.11,1.96,3,0,2.01-.75,3.13-2.06,3.13-1.16,0-1.94-1.08-1.96-3.05,0-1.99.86-3.08,2.06-3.08ZM133.57,142.04l-1.03.56-.16-.61,1.29-.69h.68v5.93h-.78v-5.18h-.02ZM133.59,136.28v-5.18h-.02l-1.03.56-.16-.61,1.29-.69h.68v5.93h-.78ZM133.83,152.13c1.25,0,1.96,1.11,1.96,3,0,2.01-.75,3.13-2.06,3.13-1.16,0-1.94-1.08-1.96-3.05,0-1.99.86-3.08,2.06-3.08ZM133.57,163.92l-1.03.56-.16-.61,1.29-.69h.68v5.93h-.78v-5.18h-.02ZM133.83,174.01c1.25,0,1.96,1.11,1.96,3,0,2.01-.75,3.13-2.06,3.13-1.16,0-1.94-1.08-1.96-3.05,0-1.99.86-3.08,2.06-3.08ZM133.57,196.74l-1.03.56-.16-.61,1.29-.69h.68v5.93h-.78v-5.18h-.02ZM133.59,190.98v-5.18h-.02l-1.03.56-.16-.61,1.29-.69h.68v5.93h-.78ZM127.09,198.98c0-1.99.86-3.08,2.06-3.08s1.96,1.11,1.96,3c0,2.01-.75,3.13-2.06,3.13-1.16,0-1.94-1.08-1.96-3.05ZM143.08,191.08c-1.16,0-1.94-1.08-1.96-3.05,0-1.99.86-3.08,2.06-3.08s1.96,1.11,1.96,3c0,2.01-.75,3.13-2.06,3.13ZM147.76,191.08c-1.16,0-1.94-1.08-1.96-3.05,0-1.99.86-3.08,2.06-3.08s1.96,1.11,1.96,3c0,2.01-.75,3.13-2.06,3.13ZM157.11,180.14c-1.16,0-1.94-1.08-1.96-3.05,0-1.99.86-3.08,2.06-3.08s1.96,1.11,1.96,3c0,2.01-.75,3.13-2.06,3.13ZM159.83,144.27c0-1.99.86-3.08,2.06-3.08s1.96,1.11,1.96,3c0,2.01-.75,3.13-2.06,3.13-1.16,0-1.94-1.08-1.96-3.05ZM161.64,152.98l-1.03.56-.16-.61,1.29-.69h.68v5.93h-.77v-5.18h-.02ZM161.65,169.1v-5.18h-.02l-1.03.56-.16-.61,1.29-.69h.68v5.93h-.77ZM112.04,122.13l-.47.42-.58.52v.31l1.04-.93c.34-.07.68-.1,1.04-.1,0-.1,0-.21.01-.31,0-.21.03-.4.06-.58.02-.13.04-.26.07-.37l-1.17,1.04Z"/><path class="cls-3" d="M161.84,98.05c-.7,0-1.21.86-1.21,2.47s.47,2.42,1.2,2.42c.82,0,1.21-.96,1.21-2.47s-.37-2.42-1.2-2.42Z"/><path class="cls-3" d="M161.84,119.93c-.7,0-1.21.86-1.21,2.47s.47,2.42,1.2,2.42c.82,0,1.21-.96,1.21-2.47s-.37-2.42-1.2-2.42Z"/><path class="cls-3" d="M161.84,108.99c-.7,0-1.21.86-1.21,2.47s.47,2.42,1.2,2.42c.82,0,1.21-.96,1.21-2.47s-.37-2.42-1.2-2.42Z"/><path class="cls-3" d="M155.96,89.58c0,1.54.47,2.42,1.2,2.42.82,0,1.21-.96,1.21-2.47,0-.17,0-.33-.02-.48h-2.38c-.01.17-.02.35-.02.54Z"/><path class="cls-3" d="M97.57,144.22c0-1.46-.37-2.42-1.2-2.42-.7,0-1.21.86-1.21,2.47,0,.29.02.56.06.8l1.77,1.35c.39-.38.59-1.15.59-2.21Z"/><path class="cls-3" d="M157.17,174.63c-.7,0-1.21.86-1.21,2.47s.47,2.42,1.2,2.42c.82,0,1.21-.96,1.21-2.47s-.37-2.42-1.2-2.42Z"/><path class="cls-3" d="M101.63,210.96h2.18c-.06-.32-.1-.66-.11-1.05,0-.42.05-.79.12-1.13l-2.19,1.72v.45Z"/><path class="cls-3" d="M152.49,108.99c-.7,0-1.21.86-1.21,2.47s.47,2.42,1.2,2.42c.82,0,1.21-.96,1.21-2.47s-.37-2.42-1.2-2.42Z"/><path class="cls-3" d="M101.04,141.81c-.7,0-1.21.86-1.21,2.47s.47,2.42,1.2,2.42c.82,0,1.21-.96,1.21-2.47s-.37-2.42-1.2-2.42Z"/><path class="cls-3" d="M157.17,163.69c-.7,0-1.21.86-1.21,2.47s.47,2.42,1.2,2.42c.82,0,1.21-.96,1.21-2.47s-.37-2.42-1.2-2.42Z"/><path class="cls-3" d="M110.4,141.81c-.7,0-1.21.86-1.21,2.47,0,1.5.45,2.36,1.14,2.41l1.12-1.08c.1-.38.15-.84.15-1.38,0-1.46-.37-2.42-1.2-2.42Z"/><path class="cls-3" d="M124.42,157.64c.82,0,1.21-.96,1.21-2.47s-.37-2.42-1.2-2.42c-.7,0-1.21.86-1.21,2.47s.47,2.42,1.2,2.42Z"/><path class="cls-3" d="M104.51,209.92c0,.39.03.74.09,1.04h2.24c.06-.32.09-.68.09-1.09,0-1.46-.37-2.42-1.2-2.42-.08,0-.16.01-.24.04l-.5.39c-.29.4-.47,1.09-.47,2.04Z"/><path class="cls-3" d="M157.17,152.75c-.7,0-1.21.86-1.21,2.47s.47,2.42,1.2,2.42c.82,0,1.21-.96,1.21-2.47s-.37-2.42-1.2-2.42Z"/><path class="cls-3" d="M152.49,119.93c-.7,0-1.21.86-1.21,2.47s.47,2.42,1.2,2.42c.82,0,1.21-.96,1.21-2.47s-.37-2.42-1.2-2.42Z"/><path class="cls-3" d="M124.42,113.87c.82,0,1.21-.96,1.21-2.47,0-1.4-.35-2.32-1.1-2.4-.36.87-.79,1.7-1.31,2.49,0,1.52.48,2.38,1.2,2.38Z"/><path class="cls-2" d="M112.71,174.48l-6.21-4.48c-.26-.18-.61-.16-.83.06l-5.74,5.53-2.37,2.27h0s-1.19,1.14-1.19,1.14l-.28.26-1.13,1.08-.24.23-2.97,2.86-.26.25-1.3,1.25-.3.3-1.27,1.22h0c-1.41-1.46-2.43-3.16-3.05-4.96-.05-.13-.09-.26-.13-.4-.42-1.34-.63-2.73-.63-4.12,0-.71.05-1.42.16-2.12-.54.08-1.11.12-1.7.12-3.45,0-6.24-3.24-6.24-3.24,0,0,2.79-3.25,6.24-3.25,1.5,0,2.87.27,3.94.73.51-.74,1.1-1.45,1.78-2.09l5.25-5.05c.29-.28.26-.76-.07-.99l-10.57-7.63c-2.32-1.67-4.07-3.92-5.11-6.49-.62-1.53-.99-3.18-1.08-4.88-.24-4.56,1.58-8.91,4.99-11.94l9.08-8.1.26-.23.92-.82.36-.32,18.53-16.52c.2-.18.31-.4.32-.66,0-.03,0-.05,0-.08,0-.3-.12-.54-.34-.73l-15.77-13.52c-.12-.1-.27-.16-.42-.16h-10.91c-23.16,0-41.94,18.78-41.94,41.94v79.33c0,.36,36.21.65,36.21.65.18,0,.35-.07.47-.21.21-.21.42-.41.67-.6l19.65-15.39.28-.22,5.11-4.01c-1.23.39-2.66.61-4.2.61-.58,0-1.15-.07-1.7-.2-.12-.02-.24-.05-.35-.09-.72-.19-1.39-.47-2.01-.79-.13-.07-.26-.14-.38-.21-2.2-1.24-3.66-2.93-3.66-2.93,0,0,.84-.98,2.22-2,.1-.08.21-.16.32-.23.57-.4,1.21-.78,1.91-1.11.2-.09.4-.18.61-.26.86-.34,1.78-.57,2.75-.61.1,0,.19,0,.29,0,4.48,0,8.11,1.89,8.11,4.22,0,.2-.03.41-.08.61l5.72-4.48,2.79-2.19.19-.14c.1-.07.17-.16.23-.25.28-.27.56-.56.82-.84.1-.15.15-.33.14-.53,0-.32-5.63-4.43-5.89-4.62ZM89.82,121.55c-.78,1.65-2.11,2.67-2.97,2.26-.86-.41-.93-2.08-.15-3.73.78-1.65,2.97-2.26,2.97-2.26,0,0,.64,1.44.41,2.88-.02.1-.05.21-.07.32-.05.18-.11.36-.19.53ZM93.04,112.47c.55.13.79,1.08.55,2.14-.24,1.06-1.44,1.68-1.44,1.68,0,0-.8-1.09-.55-2.14.25-1.06.89-1.81,1.44-1.68ZM89.68,101.75s2.74,3.09,2.29,6.38c-.4,2.9-1.8,5.17-3.3,5.51-.11.03-.22.04-.33.04-.09,0-.19,0-.28,0-1.52-.21-2.5-2.48-2.39-5.3,0-.11,0-.22.01-.33h0c.02-.25.04-.5.08-.75.03-.22.07-.44.13-.66.03-.1.06-.21.09-.31.89-2.76,3.68-4.57,3.68-4.57ZM75.95,102.01c-.03.11-.07.21-.13.3-.17.27-.47.45-.82.45-.54,0-.98-.44-.98-.98s.44-.98.98-.98.98.44.98.98c0,.08,0,.16-.03.23ZM77.62,107.05c.25-1.06.89-1.81,1.44-1.68.55.13.79,1.08.55,2.14-.1.42-.35.78-.62,1.05-.1.1-.2.19-.29.26h0c-.29.24-.52.36-.52.36,0,0-.79-1.09-.55-2.14ZM81.3,100.82c.25-1.06.89-1.81,1.44-1.68.55.13.79,1.08.55,2.14-.24,1.05-1.44,1.68-1.44,1.68,0,0-.8-1.09-.55-2.14ZM73.76,95.97c.36-.43,1.33-.23,2.17.45s.88,2.03.88,2.03c0,0-1.33.24-2.17-.45-.84-.68-1.23-1.6-.88-2.03ZM72.89,111.15c-.54,0-.98-.44-.98-.98s.44-.98.98-.98c.43,0,.8.28.93.67.03.1.05.2.05.31h0s-.54.1-.54.1l.46.3c-.05.1-.11.19-.18.27-.18.19-.44.31-.72.31ZM73.69,114.69s1.02-1.18,2.57-2.09c.1-.06.21-.12.32-.18.75-.4,1.6-.72,2.52-.82.11-.01.21-.02.32-.03.1,0,.19,0,.28,0,3.32,0,6.02,1.4,6.02,3.13s-2.69,3.13-6.02,3.13-6.01-3.13-6.01-3.13ZM92.59,191.63c0,.25-.01.51-.04.77-.21,2-2.26,3.41-2.26,3.41,0,0-1.7-1.82-1.49-3.81.15-1.45.73-2.64,1.43-3.15.1-.08.21-.14.31-.18.17-.07.35-.1.52-.08.84.09,1.43,1.21,1.52,2.69,0,.11.01.22.01.34Z"/><path class="cls-7" d="M108.85,127.07l-5.94,3.17-.14.08-.44.24-.33.17-.26.14-.22.12-.08-.15-.08-.14.18-.1,1.22-.65.2-.1h0s.85-.46.85-.46l4.75-2.53c.1.07.2.15.3.21Z"/><path class="cls-7" d="M117.73,130.86c-.08.08-.15.17-.21.26l-2.04-2.86c.11-.02.23-.05.34-.08l1.91,2.68Z"/><path class="cls-7" d="M115.58,132.01l1.4.13c-.05.1-.08.21-.11.32l-1.29-.12-.77-.07-2.54-.24h-.06c-.05,0-.1-.01-.15-.02l-.6-.06-2.2-.21-.78-.07-.98-.09-.83-.08-1.95-.18-.78-.07-.94-.09-.33-.03-.68-.07h-.04l-.16-.02h-.15s-.21-.03-.21-.03v-.16s.03-.16.03-.16h.11s.44.05.44.05l.28.03.21.02.55.05,1.06.1.8.08h0l1.63.15.87.08,1.19.11.77.07,2.02.19.83.08,2.61.25.77.07Z"/><path class="cls-1" d="M118.68,132.47v.16s-.2-.02-.2-.02c0-.05,0-.09,0-.13l.06.08.13-.1Z"/><path class="cls-6" d="M109.66,192.74c.33.67-.46,1.73-1.76,2.36s-2.94-.09-2.94-.09c0,0,.46-1.73,1.76-2.36s2.61-.59,2.94.09Z"/><path class="cls-6" d="M118.68,132.47v.16s-.2-.02-.2-.02c0-.05,0-.09,0-.13l.06.08.13-.1Z"/><path class="cls-3" d="M121,125.86c.37-.45,1.37-.25,2.25.46.87.71.91,2.11.91,2.11,0,0-1.37.25-2.25-.46s-1.28-1.65-.91-2.11Z"/><path class="cls-4" d="M111.94,122.15l-1.04.93v-.31l.58-.52c.15-.04.3-.08.46-.1Z"/><path class="cls-6" d="M119.55,137.79c.37.45-.03,1.4-.9,2.11s-2.25.47-2.25.47c0,0,.03-1.4.9-2.11s1.87-.92,2.25-.47Z"/><circle class="cls-6" cx="125.88" cy="132" r=".98"/><path class="cls-7" d="M104.67,122.08l-4.64-1.03-1.54-.35h-7.17l-2.65-7.07c-.11.03-.22.04-.33.04l2.63,7.02h-.89c-.02.1-.05.21-.07.32h1.08l.39,1.05,1.62,4.31.4,1.07,1.4-.56,4.63-1.85.31-.12,4.91-1.96,1.39-.56-1.46-.32ZM104.62,122.66l-4.87,1.95-.31.12-4.6,1.84-1.15.46-.34-.91-1.6-4.29-.31-.82h6.99l.25.05,1.27.29,4.64,1.03.43.1-.41.16Z"/><path class="cls-7" d="M107.2,135.11c-.05.1-.11.19-.18.27l-.06-.05-.5-.39-2.02-1.56-.81-.62-.7-.55-.35-.27-.61-.47-.26-.2-.18-.15-.23-.18-.46-1.56-1.3-4.34-.09-.31-.69-2.31-.42-1.4-.03-.11.31-.1.08.26.37,1.25.68,2.28.09.31,1.3,4.37.4,1.32.02.08.02.06.16.12.22.17.02.02.81.62.07.05.81.63.77.59,2.17,1.68.55.43.05.04Z"/><path class="cls-3" d="M106.65,142.42c-.49.1-.79.13-.79.13,0,0-.1-.4-.18-1.04.47.01.79.35.98.91Z"/><path class="cls-3" d="M107.32,134.87c-.04.09-.07.16-.12.24-.05.1-.11.19-.18.27-.1.13-.2.24-.33.33.03-.05.05-.09.09-.13.06-.08.12-.16.18-.25.06-.09.13-.18.2-.26.05-.07.1-.14.16-.2Z"/><path class="cls-3" d="M110.45,140.89c-.52.36-1.08.64-1.61.86.36-.57.9-.87,1.52-.87.03,0,.06,0,.09,0Z"/><circle class="cls-3" cx="101.44" cy="130.85" r="1.59"/><circle class="cls-6" cx="105.58" cy="122.45" r=".98"/><circle class="cls-6" cx="98.45" cy="120.86" r="1.59"/><circle class="cls-4" cx="93.93" cy="126.92" r=".98"/><circle class="cls-6" cx="108.81" cy="199.47" r=".98"/><path class="cls-6" d="M121.36,210.19c-.18.02-.37.05-.55.07,0,0,0-.01,0-.02l.55-.05Z"/><path class="cls-4" d="M118.53,207.88l-.1.05s.05-.07.1-.05Z"/><path class="cls-7" d="M90.2,184.95l.33,3.73c-.11.04-.21.1-.31.18l-.32-3.61-.2-2.21-.03-.36-.05-.59-.09-.96.33-.03.09.96.06.75.03.36.15,1.79Z"/><path class="cls-7" d="M96.63,190.05l-4.04,1.58c0-.12,0-.23-.01-.34l3.67-1.44c.12.07.25.14.38.21Z"/><path class="cls-7" d="M100.65,198.5l-.87-3.96-.79-3.6c-.12-.02-.24-.05-.35-.09l.86,3.91.83,3.81.2.94.32-.07-.21-.94ZM97.22,182.83l-.84-3.82-.94-4.27h0s-.9-4.1-.9-4.1l-1.53,3.84-.71,1.78-.46,1.14,2.47,2.72.42.46,2.18,2.4.13.59c.2-.09.4-.18.61-.26l-.44-.48ZM94.98,180.36l-.48-.53-2.26-2.5.37-.93.71-1.78,1.14-2.87.67,3.06.98,4.46.67,3.07-1.8-1.99ZM91.77,183.45l-1.75-.65-.34-.13-4.23-1.56-2.18-.8-.91-.34-.11.31.9.33,2.43.9,4.13,1.53.34.13,1.46.54,3.3,1.22c.1-.08.21-.16.32-.23l-3.37-1.24Z"/><path class="cls-6" d="M90.95,176.29c.55-.51,1.79-.06,2.77,1s.77,2.84.77,2.84c0,0-1.79.06-2.77-1s-1.32-2.33-.77-2.84Z"/><circle class="cls-4" cx="89.7" cy="181.1" r=".98"/><circle class="cls-6" cx="82.3" cy="180.12" r=".98"/><path class="cls-7" d="M75.95,102.01c-.03.11-.07.21-.13.3l10.09,4.32c.03-.1.06-.21.09-.31l-10.05-4.31ZM73.79,110.57c-.05.1-.11.19-.18.27l2.65,1.76c.1-.06.21-.12.32-.18l-2.79-1.85ZM85.69,108.04l-6.63,1.02-.07-.49c-.1.1-.2.19-.29.26h0s.04.28.04.28l-.57.09-4.35.67c.03.1.05.2.05.31h0s4.91-.74,4.91-.74l.31,2.17c.11-.01.21-.02.32-.03l-.31-2.19,6.57-1.01c0-.11,0-.22.01-.33Z"/><path class="cls-6" d="M73.87,110.19c0,.14-.03.26-.08.38l-.46-.3.54-.08Z"/><path class="cls-7" d="M100.26,182.72l-1.15-17.03-4.45,5.05-.23-.2,4.65-5.27-.49-7.27.97-.23,7.78-1.86.88-.99,9.79-11.1,1.55-.5,6.66-2.18-7.51,12.37-11.21,2.68-8.11,9.2.05.66,1.13,16.67-.3.02ZM98.91,158.23l.45,6.72,7.63-8.65-8.09,1.93ZM118.18,144.07l-10.33,11.71,10.67-2.55,7.02-11.56-7.36,2.4Z"/><circle class="cls-6" cx="118.09" cy="143.94" r="1.59"/><circle class="cls-3" cx="118.61" cy="153.36" r="1.82"/><circle class="cls-6" cx="98.75" cy="158.4" r=".98"/><circle class="cls-6" cx="99.15" cy="165.14" r=".91"/><circle class="cls-6" cx="94.54" cy="171.69" r="3.18"/><circle class="cls-4" cx="125.88" cy="141.39" r=".98"/><circle class="cls-4" cx="107.42" cy="156.04" r="1.38"/><circle class="cls-6" cx="100.7" cy="199.47" r=".98"/><path d="M196.47,149.55v-42.13h14.47c5.23,0,9.31.97,12.24,2.91,2.93,1.94,4.4,4.83,4.4,8.67,0,2.01-.47,3.79-1.42,5.35-.95,1.56-2.4,2.74-4.37,3.53,2.47.56,4.29,1.68,5.47,3.37,1.18,1.69,1.77,3.63,1.77,5.83,0,4.11-1.38,7.21-4.14,9.32-2.76,2.1-6.71,3.15-11.86,3.15h-16.55ZM206.28,124.98h4.86c2.22-.04,3.88-.47,4.98-1.29,1.1-.82,1.65-2.02,1.65-3.6,0-1.79-.56-3.1-1.68-3.92-1.12-.82-2.84-1.23-5.15-1.23h-4.66v10.04ZM206.28,131.46v10.56h6.74c2.08,0,3.65-.41,4.69-1.23,1.04-.82,1.56-2.08,1.56-3.78,0-1.83-.45-3.22-1.35-4.15-.9-.94-2.35-1.4-4.35-1.4h-7.29Z"/><path d="M244.93,149.55h-9.75v-42.13h9.75v42.13Z"/><path d="M287.04,132.27c0,5.19-1.64,9.47-4.93,12.83-3.29,3.37-7.59,5.05-12.89,5.05s-9.67-1.68-12.99-5.05c-3.32-3.37-4.98-7.64-4.98-12.83v-7.58c0-5.17,1.65-9.44,4.96-12.82,3.31-3.38,7.62-5.06,12.95-5.06s9.59,1.69,12.91,5.06c3.32,3.38,4.98,7.65,4.98,12.82v7.58ZM277.28,124.63c0-3.01-.71-5.48-2.13-7.41-1.42-1.93-3.42-2.89-6-2.89s-4.66.96-6.06,2.88c-1.4,1.92-2.1,4.39-2.1,7.42v7.64c0,3.05.71,5.54,2.13,7.47,1.42,1.93,3.45,2.89,6.09,2.89s4.55-.96,5.96-2.89c1.41-1.93,2.11-4.42,2.11-7.47v-7.64Z"/><path d="M292.71,149.55v-42.13h15.22c4.96,0,9.1,1.62,12.44,4.85,3.34,3.23,5.01,7.37,5.01,12.43v7.58c0,5.07-1.67,9.22-5.01,12.44-3.34,3.22-7.48,4.83-12.44,4.83h-15.22ZM302.52,114.94v27.08h4.75c2.6,0,4.64-.89,6.11-2.68,1.47-1.78,2.2-4.14,2.2-7.07v-7.64c0-2.91-.73-5.26-2.2-7.03-1.47-1.77-3.5-2.66-6.11-2.66h-4.75Z"/><path d="M341.84,149.55h-9.75v-42.13h9.75v42.13Z"/><path d="M364.24,138.12l.29,1.53h.17l.29-1.42,8.36-30.82h10.24l-13.66,42.13h-10.56l-13.6-42.13h10.21l8.25,30.7Z"/><path d="M413.2,131.52h-16.52v10.5h19.47v7.52h-29.28v-42.13h29.34v7.52h-19.53v9.06h16.52v7.52Z"/><path d="M430.38,133.4v16.15h-9.81v-42.13h16.2c4.88,0,8.75,1.13,11.6,3.39,2.85,2.26,4.28,5.34,4.28,9.26,0,2.18-.57,4.05-1.72,5.61-1.15,1.56-2.84,2.84-5.08,3.82,2.58.73,4.44,1.95,5.57,3.66,1.13,1.71,1.69,3.83,1.69,6.38v2.66c0,1.1.16,2.35.49,3.76.33,1.41.9,2.41,1.71,3.01v.58h-10.07c-.77-.6-1.28-1.66-1.52-3.18s-.36-2.93-.36-4.22v-2.55c0-2.01-.53-3.54-1.59-4.6-1.06-1.06-2.61-1.59-4.66-1.59h-6.74ZM430.38,125.88h6.45c1.97,0,3.47-.45,4.51-1.35s1.56-2.18,1.56-3.86-.54-3.1-1.61-4.15c-1.07-1.05-2.58-1.58-4.53-1.58h-6.39v10.94Z"/><path d="M482.06,138.38c0-1.49-.49-2.63-1.48-3.44s-2.75-1.67-5.3-2.58c-5.32-1.68-9.27-3.48-11.83-5.4-2.57-1.92-3.85-4.69-3.85-8.32s1.53-6.38,4.59-8.57c3.06-2.18,6.94-3.27,11.65-3.27s8.49,1.2,11.47,3.6c2.98,2.4,4.42,5.49,4.33,9.27l-.06.17h-9.49c0-1.68-.57-3.04-1.71-4.09-1.14-1.05-2.71-1.58-4.72-1.58s-3.51.43-4.63,1.3c-1.12.87-1.68,1.94-1.68,3.21s.56,2.22,1.69,2.97c1.13.74,3.25,1.67,6.35,2.79,4.78,1.43,8.39,3.18,10.81,5.27,2.42,2.08,3.63,4.95,3.63,8.59s-1.44,6.6-4.33,8.7c-2.88,2.09-6.71,3.14-11.47,3.14s-8.92-1.2-12.41-3.6c-3.49-2.4-5.19-5.86-5.09-10.37l.06-.17h9.52c0,2.43.66,4.17,1.97,5.21,1.31,1.04,3.3,1.56,5.96,1.56,2.03,0,3.53-.41,4.53-1.22.99-.81,1.49-1.87,1.49-3.18Z"/><path d="M507.53,149.55h-9.75v-42.13h9.75v42.13Z"/><path d="M543.35,114.94h-11.11v34.61h-9.81v-34.61h-11.02v-7.52h31.95v7.52Z"/><path d="M563.32,125.82h.17l8.39-18.4h10.62l-14.32,27.32v14.82h-9.75v-15.31l-14.03-26.82h10.56l8.36,18.4Z"/><path d="M442.55,193.31v-25.93h7.53c3.17,0,5.79,1.06,7.85,3.17,2.07,2.11,3.1,4.83,3.1,8.14v3.33c0,3.32-1.03,6.04-3.1,8.14s-4.68,3.15-7.85,3.15h-7.53ZM444.67,169.2v22.29h5.41c2.56,0,4.67-.9,6.33-2.69,1.66-1.79,2.48-4.06,2.48-6.8v-3.38c0-2.7-.83-4.95-2.49-6.74-1.66-1.79-3.77-2.69-6.32-2.69h-5.41Z"/><path d="M478.09,193.31c-.14-.65-.24-1.22-.3-1.69-.06-.47-.09-.96-.09-1.44-.71,1.01-1.66,1.85-2.85,2.51-1.19.66-2.52,1-4.01,1-1.88,0-3.33-.5-4.37-1.5-1.04-1-1.56-2.33-1.56-4.01,0-1.78.77-3.21,2.31-4.27,1.54-1.07,3.61-1.6,6.22-1.6h4.26v-2.39c0-1.38-.44-2.46-1.33-3.24-.88-.78-2.12-1.18-3.71-1.18-1.48,0-2.72.37-3.69,1.12s-1.47,1.66-1.47,2.74l-1.96-.02-.04-.11c-.07-1.44.58-2.72,1.97-3.86,1.38-1.13,3.14-1.7,5.28-1.7s3.83.54,5.13,1.62c1.29,1.08,1.94,2.63,1.94,4.65v9.47c0,.68.04,1.34.12,1.98.08.64.2,1.28.38,1.91h-2.23ZM471.09,191.79c1.53,0,2.88-.36,4.06-1.08,1.18-.72,2.02-1.64,2.55-2.75v-4.02h-4.29c-1.94,0-3.48.41-4.64,1.24-1.16.83-1.74,1.85-1.74,3.07,0,1.04.36,1.9,1.08,2.56.72.66,1.71.99,2.98.99Z"/><path d="M488.85,169.11v4.93h4.24v1.75h-4.24v12.55c0,1.26.23,2.15.69,2.68.46.53,1.07.79,1.83.79.34,0,.68-.01,1.01-.04.33-.03.7-.08,1.13-.15l.32,1.58c-.36.15-.79.27-1.3.36-.51.08-1.02.12-1.53.12-1.35,0-2.41-.43-3.16-1.28-.75-.85-1.13-2.21-1.13-4.06v-12.55h-3.33v-1.75h3.33v-4.93h2.15Z"/><path d="M509.8,193.31c-.14-.65-.24-1.22-.3-1.69-.06-.47-.09-.96-.09-1.44-.71,1.01-1.66,1.85-2.85,2.51-1.19.66-2.52,1-4.01,1-1.88,0-3.33-.5-4.37-1.5-1.04-1-1.56-2.33-1.56-4.01,0-1.78.77-3.21,2.31-4.27,1.54-1.07,3.61-1.6,6.22-1.6h4.26v-2.39c0-1.38-.44-2.46-1.33-3.24-.88-.78-2.12-1.18-3.71-1.18-1.48,0-2.72.37-3.69,1.12s-1.47,1.66-1.47,2.74l-1.96-.02-.04-.11c-.07-1.44.58-2.72,1.97-3.86,1.38-1.13,3.14-1.7,5.28-1.7s3.83.54,5.13,1.62c1.29,1.08,1.94,2.63,1.94,4.65v9.47c0,.68.04,1.34.12,1.98.08.64.2,1.28.38,1.91h-2.23ZM502.81,191.79c1.53,0,2.88-.36,4.06-1.08,1.18-.72,2.02-1.64,2.55-2.75v-4.02h-4.29c-1.94,0-3.48.41-4.64,1.24-1.16.83-1.74,1.85-1.74,3.07,0,1.04.36,1.9,1.08,2.56.72.66,1.71.99,2.98.99Z"/><path d="M528.8,191.49h12.82v1.82h-14.96v-25.93h2.14v24.11Z"/><path d="M557.49,193.31c-.14-.65-.24-1.22-.3-1.69-.06-.47-.09-.96-.09-1.44-.71,1.01-1.66,1.85-2.85,2.51-1.19.66-2.52,1-4.01,1-1.88,0-3.33-.5-4.37-1.5-1.04-1-1.56-2.33-1.56-4.01,0-1.78.77-3.21,2.31-4.27,1.54-1.07,3.61-1.6,6.22-1.6h4.26v-2.39c0-1.38-.44-2.46-1.33-3.24-.88-.78-2.12-1.18-3.71-1.18-1.48,0-2.72.37-3.69,1.12s-1.47,1.66-1.47,2.74l-1.96-.02-.04-.11c-.07-1.44.58-2.72,1.97-3.86,1.38-1.13,3.14-1.7,5.28-1.7s3.83.54,5.13,1.62c1.29,1.08,1.94,2.63,1.94,4.65v9.47c0,.68.04,1.34.12,1.98.08.64.2,1.28.38,1.91h-2.23ZM550.49,191.79c1.53,0,2.88-.36,4.06-1.08,1.18-.72,2.02-1.64,2.55-2.75v-4.02h-4.29c-1.94,0-3.48.41-4.64,1.24-1.16.83-1.74,1.85-1.74,3.07,0,1.04.36,1.9,1.08,2.56.72.66,1.71.99,2.98.99Z"/><path d="M580.43,184.21c0,2.88-.65,5.18-1.96,6.9-1.31,1.72-3.1,2.57-5.4,2.57-1.41,0-2.63-.28-3.65-.85-1.02-.56-1.85-1.37-2.48-2.43l-.23,2.9h-1.83v-27.78h2.14v11.54c.64-1.08,1.46-1.91,2.46-2.5s2.18-.88,3.56-.88c2.31,0,4.12.92,5.43,2.77,1.31,1.85,1.96,4.31,1.96,7.38v.37ZM578.27,183.84c0-2.47-.47-4.47-1.42-6.02-.95-1.54-2.36-2.32-4.22-2.32-1.48,0-2.68.37-3.59,1.11-.91.74-1.58,1.69-2.02,2.84v8.75c.47,1.12,1.18,2.01,2.13,2.67.94.66,2.12.99,3.52.99,1.86,0,3.26-.69,4.2-2.07.94-1.38,1.41-3.24,1.41-5.58v-.38Z"/></svg>